<?xml version="1.0" encoding="us-ascii" standalone="no"?><svg xmlns="http://www.w3.org/2000/svg" xmlns:xlink="http://www.w3.org/1999/xlink" contentStyleType="text/css" height="885px" preserveAspectRatio="none" style="width:4540px;height:885px;background:#FFFFFF;" version="1.1" viewBox="0 0 4540 885" width="4540px" zoomAndPan="magnify"><defs><filter height="300%" id="f2k1t42fbu6yq" width="300%" x="-1" y="-1"><feGaussianBlur result="blurOut" stdDeviation="2.0"/><feColorMatrix in="blurOut" result="blurOut2" type="matrix" values="0 0 0 0 0 0 0 0 0 0 0 0 0 0 0 0 0 0 .4 0"/><feOffset dx="4.0" dy="4.0" in="blurOut2" result="blurOut3"/><feBlend in="SourceGraphic" in2="blurOut3" mode="normal"/></filter></defs><g><text fill="#000000" font-family="sans-serif" font-size="14" font-weight="bold" lengthAdjust="spacing" textLength="187" x="2168.5" y="24.5332">Diagrama de clases - Mafia</text><!--cluster Jugadores--><g id="cluster_Jugadores"><path d="M8.5,44.6094 L84.5,44.6094 A3.75,3.75 0 0 1 87,47.1094 L94,68.2188 L1399.5,68.2188 A2.5,2.5 0 0 1 1402,70.7188 L1402,873.1094 A2.5,2.5 0 0 1 1399.5,875.6094 L8.5,875.6094 A2.5,2.5 0 0 1 6,873.1094 L6,47.1094 A2.5,2.5 0 0 1 8.5,44.6094 " fill="none" filter="url(#f2k1t42fbu6yq)" style="stroke:#000000;stroke-width:1.5;"/><line style="stroke:#000000;stroke-width:1.5;" x1="6" x2="94" y1="68.2188" y2="68.2188"/><text fill="#000000" font-family="sans-serif" font-size="14" font-weight="bold" lengthAdjust="spacing" textLength="75" x="10" y="61.1426">Jugadores</text></g><!--cluster Jugador--><g id="cluster_Jugador"><path d="M40.5,96.6094 L99.5,96.6094 A3.75,3.75 0 0 1 102,99.1094 L109,120.2188 L382.5,120.2188 A2.5,2.5 0 0 1 385,122.7188 L385,671.6094 A2.5,2.5 0 0 1 382.5,674.1094 L40.5,674.1094 A2.5,2.5 0 0 1 38,671.6094 L38,99.1094 A2.5,2.5 0 0 1 40.5,96.6094 " fill="none" filter="url(#f2k1t42fbu6yq)" style="stroke:#000000;stroke-width:1.5;"/><line style="stroke:#000000;stroke-width:1.5;" x1="38" x2="109" y1="120.2188" y2="120.2188"/><text fill="#000000" font-family="sans-serif" font-size="14" font-weight="bold" lengthAdjust="spacing" textLength="58" x="42" y="113.1426">Jugador</text></g><!--cluster Rol--><g id="cluster_Rol"><path d="M427.5,353.6094 L451.5,353.6094 A3.75,3.75 0 0 1 454,356.1094 L461,377.2188 L1367.5,377.2188 A2.5,2.5 0 0 1 1370,379.7188 L1370,841.1094 A2.5,2.5 0 0 1 1367.5,843.6094 L427.5,843.6094 A2.5,2.5 0 0 1 425,841.1094 L425,356.1094 A2.5,2.5 0 0 1 427.5,353.6094 " fill="none" filter="url(#f2k1t42fbu6yq)" style="stroke:#000000;stroke-width:1.5;"/><line style="stroke:#000000;stroke-width:1.5;" x1="425" x2="461" y1="377.2188" y2="377.2188"/><text fill="#000000" font-family="sans-serif" font-size="14" font-weight="bold" lengthAdjust="spacing" textLength="23" x="429" y="370.1426">Rol</text></g><!--cluster Moderador--><g id="cluster_Moderador"><path d="M1428.5,104.6094 L1507.5,104.6094 A3.75,3.75 0 0 1 1510,107.1094 L1517,128.2188 L2503.5,128.2188 A2.5,2.5 0 0 1 2506,130.7188 L2506,511.6094 A2.5,2.5 0 0 1 2503.5,514.1094 L1428.5,514.1094 A2.5,2.5 0 0 1 1426,511.6094 L1426,107.1094 A2.5,2.5 0 0 1 1428.5,104.6094 " fill="none" filter="url(#f2k1t42fbu6yq)" style="stroke:#000000;stroke-width:1.5;"/><line style="stroke:#000000;stroke-width:1.5;" x1="1426" x2="1517" y1="128.2188" y2="128.2188"/><text fill="#000000" font-family="sans-serif" font-size="14" font-weight="bold" lengthAdjust="spacing" textLength="78" x="1430" y="121.1426">Moderador</text></g><!--cluster Fases--><g id="cluster_Fases"><path d="M2532.5,80.1094 L2575.5,80.1094 A3.75,3.75 0 0 1 2578,82.6094 L2585,103.7188 L4528.5,103.7188 A2.5,2.5 0 0 1 4531,106.2188 L4531,873.1094 A2.5,2.5 0 0 1 4528.5,875.6094 L2532.5,875.6094 A2.5,2.5 0 0 1 2530,873.1094 L2530,82.6094 A2.5,2.5 0 0 1 2532.5,80.1094 " fill="none" filter="url(#f2k1t42fbu6yq)" style="stroke:#000000;stroke-width:1.5;"/><line style="stroke:#000000;stroke-width:1.5;" x1="2530" x2="2585" y1="103.7188" y2="103.7188"/><text fill="#000000" font-family="sans-serif" font-size="14" font-weight="bold" lengthAdjust="spacing" textLength="42" x="2534" y="96.6426">Fases</text></g><!--cluster VotacionDiurna--><g id="cluster_VotacionDiurna"><path d="M3972.5,353.6094 L4080.5,353.6094 A3.75,3.75 0 0 1 4083,356.1094 L4090,377.2188 L4496.5,377.2188 A2.5,2.5 0 0 1 4499,379.7188 L4499,841.1094 A2.5,2.5 0 0 1 4496.5,843.6094 L3972.5,843.6094 A2.5,2.5 0 0 1 3970,841.1094 L3970,356.1094 A2.5,2.5 0 0 1 3972.5,353.6094 " fill="none" filter="url(#f2k1t42fbu6yq)" style="stroke:#000000;stroke-width:1.5;"/><line style="stroke:#000000;stroke-width:1.5;" x1="3970" x2="4090" y1="377.2188" y2="377.2188"/><text fill="#000000" font-family="sans-serif" font-size="14" font-weight="bold" lengthAdjust="spacing" textLength="107" x="3974" y="370.1426">VotacionDiurna</text></g><!--cluster FaseDiurna--><g id="cluster_FaseDiurna"><path d="M3368.5,149.6094 L3449.5,149.6094 A3.75,3.75 0 0 1 3452,152.1094 L3459,173.2188 L3927.5,173.2188 A2.5,2.5 0 0 1 3930,175.7188 L3930,689.1094 A2.5,2.5 0 0 1 3927.5,691.6094 L3368.5,691.6094 A2.5,2.5 0 0 1 3366,689.1094 L3366,152.1094 A2.5,2.5 0 0 1 3368.5,149.6094 " fill="none" filter="url(#f2k1t42fbu6yq)" style="stroke:#000000;stroke-width:1.5;"/><line style="stroke:#000000;stroke-width:1.5;" x1="3366" x2="3459" y1="173.2188" y2="173.2188"/><text fill="#000000" font-family="sans-serif" font-size="14" font-weight="bold" lengthAdjust="spacing" textLength="80" x="3370" y="166.1426">FaseDiurna</text></g><!--cluster VotacionNocturna--><g id="cluster_VotacionNocturna"><path d="M3004.5,362.1094 L3130.5,362.1094 A3.75,3.75 0 0 1 3133,364.6094 L3140,385.7188 L3323.5,385.7188 A2.5,2.5 0 0 1 3326,388.2188 L3326,698.1094 A2.5,2.5 0 0 1 3323.5,700.6094 L3004.5,700.6094 A2.5,2.5 0 0 1 3002,698.1094 L3002,364.6094 A2.5,2.5 0 0 1 3004.5,362.1094 " fill="none" filter="url(#f2k1t42fbu6yq)" style="stroke:#000000;stroke-width:1.5;"/><line style="stroke:#000000;stroke-width:1.5;" x1="3002" x2="3140" y1="385.7188" y2="385.7188"/><text fill="#000000" font-family="sans-serif" font-size="14" font-weight="bold" lengthAdjust="spacing" textLength="125" x="3006" y="378.6426">VotacionNocturna</text></g><!--cluster FaseNocturna--><g id="cluster_FaseNocturna"><path d="M2564.5,132.1094 L2663.5,132.1094 A3.75,3.75 0 0 1 2666,134.6094 L2673,155.7188 L2959.5,155.7188 A2.5,2.5 0 0 1 2962,158.2188 L2962,698.1094 A2.5,2.5 0 0 1 2959.5,700.6094 L2564.5,700.6094 A2.5,2.5 0 0 1 2562,698.1094 L2562,134.6094 A2.5,2.5 0 0 1 2564.5,132.1094 " fill="none" filter="url(#f2k1t42fbu6yq)" style="stroke:#000000;stroke-width:1.5;"/><line style="stroke:#000000;stroke-width:1.5;" x1="2562" x2="2673" y1="155.7188" y2="155.7188"/><text fill="#000000" font-family="sans-serif" font-size="14" font-weight="bold" lengthAdjust="spacing" textLength="98" x="2566" y="148.6426">FaseNocturna</text></g><!--class Jugador--><g id="elem_Jugador"><rect codeLine="3" fill="#FEFECE" filter="url(#f2k1t42fbu6yq)" height="188.875" id="Jugador" rx="2.5" ry="2.5" style="stroke:#A80036;stroke-width:0.5;" width="279" x="62.5" y="140.6094"/><ellipse cx="172.25" cy="156.6094" fill="#ADD1B2" rx="11" ry="11" style="stroke:#181818;stroke-width:1.0;"/><path d="M175.0156,152.4844 Q175.1719,152.2656 175.3594,152.1563 Q175.5469,152.0469 175.7656,152.0469 Q176.1406,152.0469 176.375,152.3125 Q176.6094,152.5625 176.6094,153.1719 L176.6094,154.625 Q176.6094,155.2344 176.375,155.5 Q176.1406,155.7656 175.7656,155.7656 Q175.4219,155.7656 175.2188,155.5625 Q175.0156,155.375 174.9063,154.8594 Q174.8594,154.5 174.6719,154.3125 Q174.3438,153.9375 173.7344,153.7188 Q173.125,153.5 172.5,153.5 Q171.7344,153.5 171.0938,153.8281 Q170.4688,154.1563 169.9688,154.9063 Q169.4844,155.6563 169.4844,156.6875 L169.4844,157.7813 Q169.4844,159.0156 170.375,159.8438 Q171.2656,160.6563 172.8594,160.6563 Q173.7969,160.6563 174.4531,160.4063 Q174.8438,160.25 175.2656,159.8125 Q175.5313,159.5469 175.6719,159.4688 Q175.8281,159.3906 176.0313,159.3906 Q176.3594,159.3906 176.6094,159.6563 Q176.875,159.9063 176.875,160.25 Q176.875,160.5938 176.5313,161 Q176.0313,161.5781 175.2344,161.9063 Q174.1563,162.3594 172.8594,162.3594 Q171.3438,162.3594 170.1406,161.7344 Q169.1563,161.2344 168.4688,160.1719 Q167.7813,159.0938 167.7813,157.8125 L167.7813,156.6563 Q167.7813,155.3281 168.3906,154.1875 Q169.0156,153.0313 170.1094,152.4219 Q171.2031,151.7969 172.4375,151.7969 Q173.1719,151.7969 173.8125,151.9688 Q174.4688,152.125 175.0156,152.4844 Z " fill="#000000"/><text fill="#000000" font-family="sans-serif" font-size="14" lengthAdjust="spacing" textLength="51" x="192.75" y="162.3379">Jugador</text><line style="stroke:#A80036;stroke-width:0.5;" x1="63.5" x2="340.5" y1="172.6094" y2="172.6094"/><text fill="#000000" font-family="sans-serif" font-size="14" lengthAdjust="spacing" textLength="102" x="68.5" y="191.1426">-nombre : String</text><text fill="#000000" font-family="sans-serif" font-size="14" lengthAdjust="spacing" textLength="70" x="68.5" y="208.752">-carta : Rol</text><text fill="#000000" font-family="sans-serif" font-size="14" lengthAdjust="spacing" textLength="155" x="68.5" y="226.3613">-estado : EstadoJugador</text><line style="stroke:#A80036;stroke-width:0.5;" x1="63.5" x2="340.5" y1="233.4375" y2="233.4375"/><text fill="#000000" font-family="sans-serif" font-size="14" lengthAdjust="spacing" textLength="231" x="68.5" y="251.9707">+Jugador(String: nombre, Rol: carta)</text><text fill="#000000" font-family="sans-serif" font-size="14" lengthAdjust="spacing" textLength="253" x="68.5" y="269.5801">+acusar(Collection&lt;Jugador&gt;) : Jugador</text><text fill="#000000" font-family="sans-serif" font-size="14" lengthAdjust="spacing" textLength="267" x="68.5" y="287.1895">+defender(Collection&lt;Jugador&gt;) : Jugador</text><text fill="#000000" font-family="sans-serif" font-size="14" lengthAdjust="spacing" textLength="261" x="68.5" y="304.7988">+nominar(Collection&lt;Jugador&gt;) : Jugador</text><text fill="#000000" font-family="sans-serif" font-size="14" lengthAdjust="spacing" textLength="220" x="68.5" y="322.4082">+votar(Collection&lt;Jugador&gt;) : Voto</text></g><!--class EstadoJugador--><g id="elem_EstadoJugador"><rect codeLine="14" fill="#FEFECE" filter="url(#f2k1t42fbu6yq)" height="83.2188" id="EstadoJugador" rx="2.5" ry="2.5" style="stroke:#A80036;stroke-width:0.5;" width="168" x="118" y="415.1094"/><ellipse cx="151" cy="431.1094" fill="#B4A7E5" rx="11" ry="11" style="stroke:#181818;stroke-width:1.0;"/><path d="M151.9531,427.75 L151.9531,434.4063 L153.6719,434.4063 Q154.2813,434.4063 154.5469,434.6406 Q154.8125,434.875 154.8125,435.2656 Q154.8125,435.6406 154.5469,435.875 Q154.2813,436.1094 153.6719,436.1094 L148.5313,436.1094 Q147.9219,436.1094 147.6563,435.875 Q147.3906,435.6406 147.3906,435.25 Q147.3906,434.875 147.6563,434.6406 Q147.9219,434.4063 148.5313,434.4063 L150.25,434.4063 L150.25,427.75 L148.5313,427.75 Q147.9219,427.75 147.6563,427.5156 Q147.3906,427.2813 147.3906,426.8906 Q147.3906,426.5156 147.6563,426.2813 Q147.9219,426.0469 148.5313,426.0469 L153.6719,426.0469 Q154.2813,426.0469 154.5469,426.2813 Q154.8125,426.5156 154.8125,426.8906 Q154.8125,427.2813 154.5469,427.5156 Q154.2813,427.75 153.6719,427.75 L151.9531,427.75 Z " fill="#000000"/><text fill="#000000" font-family="sans-serif" font-size="14" font-style="italic" lengthAdjust="spacing" textLength="96" x="169" y="436.8379">EstadoJugador</text><line style="stroke:#A80036;stroke-width:0.5;" x1="119" x2="285" y1="447.1094" y2="447.1094"/><line style="stroke:#A80036;stroke-width:0.5;" x1="119" x2="285" y1="455.1094" y2="455.1094"/><text fill="#000000" font-family="sans-serif" font-size="14" lengthAdjust="spacing" textLength="156" x="124" y="473.6426">+puedeJugar() : boolean</text><text fill="#000000" font-family="sans-serif" font-size="14" lengthAdjust="spacing" textLength="67" x="124" y="491.252">+eliminar()</text></g><!--class Vivo--><g id="elem_Vivo"><rect fill="#FEFECE" filter="url(#f2k1t42fbu6yq)" height="48" id="Vivo" rx="2.5" ry="2.5" style="stroke:#A80036;stroke-width:0.5;" width="59" x="108.5" y="602.1094"/><ellipse cx="123.5" cy="618.1094" fill="#ADD1B2" rx="11" ry="11" style="stroke:#181818;stroke-width:1.0;"/><path d="M126.2656,613.9844 Q126.4219,613.7656 126.6094,613.6563 Q126.7969,613.5469 127.0156,613.5469 Q127.3906,613.5469 127.625,613.8125 Q127.8594,614.0625 127.8594,614.6719 L127.8594,616.125 Q127.8594,616.7344 127.625,617 Q127.3906,617.2656 127.0156,617.2656 Q126.6719,617.2656 126.4688,617.0625 Q126.2656,616.875 126.1563,616.3594 Q126.1094,616 125.9219,615.8125 Q125.5938,615.4375 124.9844,615.2188 Q124.375,615 123.75,615 Q122.9844,615 122.3438,615.3281 Q121.7188,615.6563 121.2188,616.4063 Q120.7344,617.1563 120.7344,618.1875 L120.7344,619.2813 Q120.7344,620.5156 121.625,621.3438 Q122.5156,622.1563 124.1094,622.1563 Q125.0469,622.1563 125.7031,621.9063 Q126.0938,621.75 126.5156,621.3125 Q126.7813,621.0469 126.9219,620.9688 Q127.0781,620.8906 127.2813,620.8906 Q127.6094,620.8906 127.8594,621.1563 Q128.125,621.4063 128.125,621.75 Q128.125,622.0938 127.7813,622.5 Q127.2813,623.0781 126.4844,623.4063 Q125.4063,623.8594 124.1094,623.8594 Q122.5938,623.8594 121.3906,623.2344 Q120.4063,622.7344 119.7188,621.6719 Q119.0313,620.5938 119.0313,619.3125 L119.0313,618.1563 Q119.0313,616.8281 119.6406,615.6875 Q120.2656,614.5313 121.3594,613.9219 Q122.4531,613.2969 123.6875,613.2969 Q124.4219,613.2969 125.0625,613.4688 Q125.7188,613.625 126.2656,613.9844 Z " fill="#000000"/><text fill="#000000" font-family="sans-serif" font-size="14" lengthAdjust="spacing" textLength="27" x="137.5" y="623.8379">Vivo</text><line style="stroke:#A80036;stroke-width:0.5;" x1="109.5" x2="166.5" y1="634.1094" y2="634.1094"/><line style="stroke:#A80036;stroke-width:0.5;" x1="109.5" x2="166.5" y1="642.1094" y2="642.1094"/></g><!--class Eliminado--><g id="elem_Eliminado"><rect fill="#FEFECE" filter="url(#f2k1t42fbu6yq)" height="48" id="Eliminado" rx="2.5" ry="2.5" style="stroke:#A80036;stroke-width:0.5;" width="93" x="202.5" y="602.1094"/><ellipse cx="217.5" cy="618.1094" fill="#ADD1B2" rx="11" ry="11" style="stroke:#181818;stroke-width:1.0;"/><path d="M220.2656,613.9844 Q220.4219,613.7656 220.6094,613.6563 Q220.7969,613.5469 221.0156,613.5469 Q221.3906,613.5469 221.625,613.8125 Q221.8594,614.0625 221.8594,614.6719 L221.8594,616.125 Q221.8594,616.7344 221.625,617 Q221.3906,617.2656 221.0156,617.2656 Q220.6719,617.2656 220.4688,617.0625 Q220.2656,616.875 220.1563,616.3594 Q220.1094,616 219.9219,615.8125 Q219.5938,615.4375 218.9844,615.2188 Q218.375,615 217.75,615 Q216.9844,615 216.3438,615.3281 Q215.7188,615.6563 215.2188,616.4063 Q214.7344,617.1563 214.7344,618.1875 L214.7344,619.2813 Q214.7344,620.5156 215.625,621.3438 Q216.5156,622.1563 218.1094,622.1563 Q219.0469,622.1563 219.7031,621.9063 Q220.0938,621.75 220.5156,621.3125 Q220.7813,621.0469 220.9219,620.9688 Q221.0781,620.8906 221.2813,620.8906 Q221.6094,620.8906 221.8594,621.1563 Q222.125,621.4063 222.125,621.75 Q222.125,622.0938 221.7813,622.5 Q221.2813,623.0781 220.4844,623.4063 Q219.4063,623.8594 218.1094,623.8594 Q216.5938,623.8594 215.3906,623.2344 Q214.4063,622.7344 213.7188,621.6719 Q213.0313,620.5938 213.0313,619.3125 L213.0313,618.1563 Q213.0313,616.8281 213.6406,615.6875 Q214.2656,614.5313 215.3594,613.9219 Q216.4531,613.2969 217.6875,613.2969 Q218.4219,613.2969 219.0625,613.4688 Q219.7188,613.625 220.2656,613.9844 Z " fill="#000000"/><text fill="#000000" font-family="sans-serif" font-size="14" lengthAdjust="spacing" textLength="61" x="231.5" y="623.8379">Eliminado</text><line style="stroke:#A80036;stroke-width:0.5;" x1="203.5" x2="294.5" y1="634.1094" y2="634.1094"/><line style="stroke:#A80036;stroke-width:0.5;" x1="203.5" x2="294.5" y1="642.1094" y2="642.1094"/></g><!--class Rol--><g id="elem_Rol"><rect codeLine="2" fill="#FEFECE" filter="url(#f2k1t42fbu6yq)" height="118.4375" id="Rol" rx="2.5" ry="2.5" style="stroke:#A80036;stroke-width:0.5;" width="216" x="857" y="397.6094"/><ellipse cx="950.25" cy="413.6094" fill="#A9DCDF" rx="11" ry="11" style="stroke:#181818;stroke-width:1.0;"/><path d="M952.4375,415.375 L948.2969,415.375 L947.875,416.4063 L948.2969,416.4063 Q948.9063,416.4063 949.1719,416.6406 Q949.4375,416.875 949.4375,417.2656 Q949.4375,417.6406 949.1719,417.875 Q948.9063,418.1094 948.2969,418.1094 L946,418.1094 Q945.3906,418.1094 945.1406,417.875 Q944.875,417.6406 944.875,417.25 Q944.875,416.875 945.1563,416.6406 Q945.4219,416.3906 946.0469,416.4063 L948.7188,409.75 L947.6094,409.75 Q947,409.75 946.7344,409.5156 Q946.4688,409.2813 946.4688,408.8906 Q946.4688,408.5156 946.7344,408.2813 Q947,408.0469 947.6094,408.0469 L951.2813,408.0469 L954.6719,416.4063 Q955.2656,416.4063 955.4531,416.5469 Q955.8438,416.8125 955.8438,417.2656 Q955.8438,417.6406 955.5781,417.875 Q955.3281,418.1094 954.7188,418.1094 L952.4219,418.1094 Q951.8125,418.1094 951.5469,417.875 Q951.2813,417.6406 951.2813,417.25 Q951.2813,416.875 951.5469,416.6406 Q951.8125,416.4063 952.4219,416.4063 L952.8438,416.4063 L952.4375,415.375 Z M951.7188,413.6719 L950.3594,410.2969 L948.9844,413.6719 L951.7188,413.6719 Z " fill="#000000"/><text fill="#000000" font-family="sans-serif" font-size="14" font-style="italic" lengthAdjust="spacing" textLength="21" x="970.75" y="419.3379">Rol</text><line style="stroke:#A80036;stroke-width:0.5;" x1="858" x2="1072" y1="429.6094" y2="429.6094"/><text fill="#000000" font-family="sans-serif" font-size="14" lengthAdjust="spacing" textLength="98" x="863" y="448.1426">-bando : Bando</text><line style="stroke:#A80036;stroke-width:0.5;" x1="858" x2="1072" y1="455.2188" y2="455.2188"/><text fill="#000000" font-family="sans-serif" font-size="14" lengthAdjust="spacing" textLength="169" x="863" y="473.752">+bandoAparente() : Bando</text><text fill="#000000" font-family="sans-serif" font-size="14" font-style="italic" lengthAdjust="spacing" textLength="204" x="863" y="491.3613">+aceptarAccion(TurnoNocturno)</text><text fill="#000000" font-family="sans-serif" font-size="14" font-style="italic" lengthAdjust="spacing" textLength="192" x="863" y="508.9707">+aceptarAccion(TurnoDebate)</text></g><!--class Mafioso--><g id="elem_Mafioso"><rect codeLine="9" fill="#FEFECE" filter="url(#f2k1t42fbu6yq)" height="100.8281" id="Mafioso" rx="2.5" ry="2.5" style="stroke:#A80036;stroke-width:0.5;" width="302" x="457" y="575.6094"/><ellipse cx="579.25" cy="591.6094" fill="#ADD1B2" rx="11" ry="11" style="stroke:#181818;stroke-width:1.0;"/><path d="M582.0156,587.4844 Q582.1719,587.2656 582.3594,587.1563 Q582.5469,587.0469 582.7656,587.0469 Q583.1406,587.0469 583.375,587.3125 Q583.6094,587.5625 583.6094,588.1719 L583.6094,589.625 Q583.6094,590.2344 583.375,590.5 Q583.1406,590.7656 582.7656,590.7656 Q582.4219,590.7656 582.2188,590.5625 Q582.0156,590.375 581.9063,589.8594 Q581.8594,589.5 581.6719,589.3125 Q581.3438,588.9375 580.7344,588.7188 Q580.125,588.5 579.5,588.5 Q578.7344,588.5 578.0938,588.8281 Q577.4688,589.1563 576.9688,589.9063 Q576.4844,590.6563 576.4844,591.6875 L576.4844,592.7813 Q576.4844,594.0156 577.375,594.8438 Q578.2656,595.6563 579.8594,595.6563 Q580.7969,595.6563 581.4531,595.4063 Q581.8438,595.25 582.2656,594.8125 Q582.5313,594.5469 582.6719,594.4688 Q582.8281,594.3906 583.0313,594.3906 Q583.3594,594.3906 583.6094,594.6563 Q583.875,594.9063 583.875,595.25 Q583.875,595.5938 583.5313,596 Q583.0313,596.5781 582.2344,596.9063 Q581.1563,597.3594 579.8594,597.3594 Q578.3438,597.3594 577.1406,596.7344 Q576.1563,596.2344 575.4688,595.1719 Q574.7813,594.0938 574.7813,592.8125 L574.7813,591.6563 Q574.7813,590.3281 575.3906,589.1875 Q576.0156,588.0313 577.1094,587.4219 Q578.2031,586.7969 579.4375,586.7969 Q580.1719,586.7969 580.8125,586.9688 Q581.4688,587.125 582.0156,587.4844 Z " fill="#000000"/><text fill="#000000" font-family="sans-serif" font-size="14" lengthAdjust="spacing" textLength="49" x="599.75" y="597.3379">Mafioso</text><line style="stroke:#A80036;stroke-width:0.5;" x1="458" x2="758" y1="607.6094" y2="607.6094"/><text fill="#000000" font-family="sans-serif" font-size="14" lengthAdjust="spacing" textLength="208" x="463" y="626.1426">-complices : Collection&lt;Jugador&gt;</text><line style="stroke:#A80036;stroke-width:0.5;" x1="458" x2="758" y1="633.2188" y2="633.2188"/><text fill="#000000" font-family="sans-serif" font-size="14" lengthAdjust="spacing" textLength="265" x="463" y="651.752">+registrarComplices(Collection&lt;Jugador&gt;)</text><text fill="#000000" font-family="sans-serif" font-size="14" lengthAdjust="spacing" textLength="290" x="463" y="669.3613">+elegirVictima(Collection&lt;Jugador&gt;) : Jugador</text></g><!--class Padrino--><g id="elem_Padrino"><rect codeLine="15" fill="#FEFECE" filter="url(#f2k1t42fbu6yq)" height="65.6094" id="Padrino" rx="2.5" ry="2.5" style="stroke:#A80036;stroke-width:0.5;" width="181" x="517.5" y="745.1094"/><ellipse cx="579.25" cy="761.1094" fill="#ADD1B2" rx="11" ry="11" style="stroke:#181818;stroke-width:1.0;"/><path d="M582.0156,756.9844 Q582.1719,756.7656 582.3594,756.6563 Q582.5469,756.5469 582.7656,756.5469 Q583.1406,756.5469 583.375,756.8125 Q583.6094,757.0625 583.6094,757.6719 L583.6094,759.125 Q583.6094,759.7344 583.375,760 Q583.1406,760.2656 582.7656,760.2656 Q582.4219,760.2656 582.2188,760.0625 Q582.0156,759.875 581.9063,759.3594 Q581.8594,759 581.6719,758.8125 Q581.3438,758.4375 580.7344,758.2188 Q580.125,758 579.5,758 Q578.7344,758 578.0938,758.3281 Q577.4688,758.6563 576.9688,759.4063 Q576.4844,760.1563 576.4844,761.1875 L576.4844,762.2813 Q576.4844,763.5156 577.375,764.3438 Q578.2656,765.1563 579.8594,765.1563 Q580.7969,765.1563 581.4531,764.9063 Q581.8438,764.75 582.2656,764.3125 Q582.5313,764.0469 582.6719,763.9688 Q582.8281,763.8906 583.0313,763.8906 Q583.3594,763.8906 583.6094,764.1563 Q583.875,764.4063 583.875,764.75 Q583.875,765.0938 583.5313,765.5 Q583.0313,766.0781 582.2344,766.4063 Q581.1563,766.8594 579.8594,766.8594 Q578.3438,766.8594 577.1406,766.2344 Q576.1563,765.7344 575.4688,764.6719 Q574.7813,763.5938 574.7813,762.3125 L574.7813,761.1563 Q574.7813,759.8281 575.3906,758.6875 Q576.0156,757.5313 577.1094,756.9219 Q578.2031,756.2969 579.4375,756.2969 Q580.1719,756.2969 580.8125,756.4688 Q581.4688,756.625 582.0156,756.9844 Z " fill="#000000"/><text fill="#000000" font-family="sans-serif" font-size="14" lengthAdjust="spacing" textLength="49" x="599.75" y="766.8379">Padrino</text><line style="stroke:#A80036;stroke-width:0.5;" x1="518.5" x2="697.5" y1="777.1094" y2="777.1094"/><line style="stroke:#A80036;stroke-width:0.5;" x1="518.5" x2="697.5" y1="785.1094" y2="785.1094"/><text fill="#000000" font-family="sans-serif" font-size="14" lengthAdjust="spacing" textLength="169" x="523.5" y="803.6426">+bandoAparente() : Bando</text></g><!--class Sheriff--><g id="elem_Sheriff"><rect codeLine="19" fill="#FEFECE" filter="url(#f2k1t42fbu6yq)" height="100.8281" id="Sheriff" rx="2.5" ry="2.5" style="stroke:#A80036;stroke-width:0.5;" width="203" x="794.5" y="575.6094"/><ellipse cx="871.25" cy="591.6094" fill="#ADD1B2" rx="11" ry="11" style="stroke:#181818;stroke-width:1.0;"/><path d="M874.0156,587.4844 Q874.1719,587.2656 874.3594,587.1563 Q874.5469,587.0469 874.7656,587.0469 Q875.1406,587.0469 875.375,587.3125 Q875.6094,587.5625 875.6094,588.1719 L875.6094,589.625 Q875.6094,590.2344 875.375,590.5 Q875.1406,590.7656 874.7656,590.7656 Q874.4219,590.7656 874.2188,590.5625 Q874.0156,590.375 873.9063,589.8594 Q873.8594,589.5 873.6719,589.3125 Q873.3438,588.9375 872.7344,588.7188 Q872.125,588.5 871.5,588.5 Q870.7344,588.5 870.0938,588.8281 Q869.4688,589.1563 868.9688,589.9063 Q868.4844,590.6563 868.4844,591.6875 L868.4844,592.7813 Q868.4844,594.0156 869.375,594.8438 Q870.2656,595.6563 871.8594,595.6563 Q872.7969,595.6563 873.4531,595.4063 Q873.8438,595.25 874.2656,594.8125 Q874.5313,594.5469 874.6719,594.4688 Q874.8281,594.3906 875.0313,594.3906 Q875.3594,594.3906 875.6094,594.6563 Q875.875,594.9063 875.875,595.25 Q875.875,595.5938 875.5313,596 Q875.0313,596.5781 874.2344,596.9063 Q873.1563,597.3594 871.8594,597.3594 Q870.3438,597.3594 869.1406,596.7344 Q868.1563,596.2344 867.4688,595.1719 Q866.7813,594.0938 866.7813,592.8125 L866.7813,591.6563 Q866.7813,590.3281 867.3906,589.1875 Q868.0156,588.0313 869.1094,587.4219 Q870.2031,586.7969 871.4375,586.7969 Q872.1719,586.7969 872.8125,586.9688 Q873.4688,587.125 874.0156,587.4844 Z " fill="#000000"/><text fill="#000000" font-family="sans-serif" font-size="14" lengthAdjust="spacing" textLength="41" x="891.75" y="597.3379">Sheriff</text><line style="stroke:#A80036;stroke-width:0.5;" x1="795.5" x2="996.5" y1="607.6094" y2="607.6094"/><text fill="#000000" font-family="sans-serif" font-size="14" lengthAdjust="spacing" textLength="144" x="800.5" y="626.1426">-rolRevelado : boolean</text><line style="stroke:#A80036;stroke-width:0.5;" x1="795.5" x2="996.5" y1="633.2188" y2="633.2188"/><text fill="#000000" font-family="sans-serif" font-size="14" lengthAdjust="spacing" textLength="191" x="800.5" y="651.752">+puedeRevelarRol() : boolean</text><text fill="#000000" font-family="sans-serif" font-size="14" lengthAdjust="spacing" textLength="83" x="800.5" y="669.3613">+revelarRol()</text></g><!--class Detective--><g id="elem_Detective"><rect codeLine="25" fill="#FEFECE" filter="url(#f2k1t42fbu6yq)" height="83.2188" id="Detective" rx="2.5" ry="2.5" style="stroke:#A80036;stroke-width:0.5;" width="378" x="845" y="736.6094"/><ellipse cx="1000.25" cy="752.6094" fill="#ADD1B2" rx="11" ry="11" style="stroke:#181818;stroke-width:1.0;"/><path d="M1003.0156,748.4844 Q1003.1719,748.2656 1003.3594,748.1563 Q1003.5469,748.0469 1003.7656,748.0469 Q1004.1406,748.0469 1004.375,748.3125 Q1004.6094,748.5625 1004.6094,749.1719 L1004.6094,750.625 Q1004.6094,751.2344 1004.375,751.5 Q1004.1406,751.7656 1003.7656,751.7656 Q1003.4219,751.7656 1003.2188,751.5625 Q1003.0156,751.375 1002.9063,750.8594 Q1002.8594,750.5 1002.6719,750.3125 Q1002.3438,749.9375 1001.7344,749.7188 Q1001.125,749.5 1000.5,749.5 Q999.7344,749.5 999.0938,749.8281 Q998.4688,750.1563 997.9688,750.9063 Q997.4844,751.6563 997.4844,752.6875 L997.4844,753.7813 Q997.4844,755.0156 998.375,755.8438 Q999.2656,756.6563 1000.8594,756.6563 Q1001.7969,756.6563 1002.4531,756.4063 Q1002.8438,756.25 1003.2656,755.8125 Q1003.5313,755.5469 1003.6719,755.4688 Q1003.8281,755.3906 1004.0313,755.3906 Q1004.3594,755.3906 1004.6094,755.6563 Q1004.875,755.9063 1004.875,756.25 Q1004.875,756.5938 1004.5313,757 Q1004.0313,757.5781 1003.2344,757.9063 Q1002.1563,758.3594 1000.8594,758.3594 Q999.3438,758.3594 998.1406,757.7344 Q997.1563,757.2344 996.4688,756.1719 Q995.7813,755.0938 995.7813,753.8125 L995.7813,752.6563 Q995.7813,751.3281 996.3906,750.1875 Q997.0156,749.0313 998.1094,748.4219 Q999.2031,747.7969 1000.4375,747.7969 Q1001.1719,747.7969 1001.8125,747.9688 Q1002.4688,748.125 1003.0156,748.4844 Z " fill="#000000"/><text fill="#000000" font-family="sans-serif" font-size="14" lengthAdjust="spacing" textLength="59" x="1020.75" y="758.3379">Detective</text><line style="stroke:#A80036;stroke-width:0.5;" x1="846" x2="1222" y1="768.6094" y2="768.6094"/><text fill="#000000" font-family="sans-serif" font-size="14" lengthAdjust="spacing" textLength="187" x="851" y="787.1426">-ultimaInvestigacion : Jugador</text><line style="stroke:#A80036;stroke-width:0.5;" x1="846" x2="1222" y1="794.2188" y2="794.2188"/><text fill="#000000" font-family="sans-serif" font-size="14" lengthAdjust="spacing" textLength="366" x="851" y="812.752">+investigar(Collection&lt;Jugador&gt;) : ResultadoInvestigacion</text></g><!--class Medico--><g id="elem_Medico"><rect codeLine="30" fill="#FEFECE" filter="url(#f2k1t42fbu6yq)" height="83.2188" id="Medico" rx="2.5" ry="2.5" style="stroke:#A80036;stroke-width:0.5;" width="276" x="1070" y="584.6094"/><ellipse cx="1181.25" cy="600.6094" fill="#ADD1B2" rx="11" ry="11" style="stroke:#181818;stroke-width:1.0;"/><path d="M1184.0156,596.4844 Q1184.1719,596.2656 1184.3594,596.1563 Q1184.5469,596.0469 1184.7656,596.0469 Q1185.1406,596.0469 1185.375,596.3125 Q1185.6094,596.5625 1185.6094,597.1719 L1185.6094,598.625 Q1185.6094,599.2344 1185.375,599.5 Q1185.1406,599.7656 1184.7656,599.7656 Q1184.4219,599.7656 1184.2188,599.5625 Q1184.0156,599.375 1183.9063,598.8594 Q1183.8594,598.5 1183.6719,598.3125 Q1183.3438,597.9375 1182.7344,597.7188 Q1182.125,597.5 1181.5,597.5 Q1180.7344,597.5 1180.0938,597.8281 Q1179.4688,598.1563 1178.9688,598.9063 Q1178.4844,599.6563 1178.4844,600.6875 L1178.4844,601.7813 Q1178.4844,603.0156 1179.375,603.8438 Q1180.2656,604.6563 1181.8594,604.6563 Q1182.7969,604.6563 1183.4531,604.4063 Q1183.8438,604.25 1184.2656,603.8125 Q1184.5313,603.5469 1184.6719,603.4688 Q1184.8281,603.3906 1185.0313,603.3906 Q1185.3594,603.3906 1185.6094,603.6563 Q1185.875,603.9063 1185.875,604.25 Q1185.875,604.5938 1185.5313,605 Q1185.0313,605.5781 1184.2344,605.9063 Q1183.1563,606.3594 1181.8594,606.3594 Q1180.3438,606.3594 1179.1406,605.7344 Q1178.1563,605.2344 1177.4688,604.1719 Q1176.7813,603.0938 1176.7813,601.8125 L1176.7813,600.6563 Q1176.7813,599.3281 1177.3906,598.1875 Q1178.0156,597.0313 1179.1094,596.4219 Q1180.2031,595.7969 1181.4375,595.7969 Q1182.1719,595.7969 1182.8125,595.9688 Q1183.4688,596.125 1184.0156,596.4844 Z " fill="#000000"/><text fill="#000000" font-family="sans-serif" font-size="14" lengthAdjust="spacing" textLength="45" x="1201.75" y="606.3379">Medico</text><line style="stroke:#A80036;stroke-width:0.5;" x1="1071" x2="1345" y1="616.6094" y2="616.6094"/><text fill="#000000" font-family="sans-serif" font-size="14" lengthAdjust="spacing" textLength="172" x="1076" y="635.1426">-ultimaProteccion : Jugador</text><line style="stroke:#A80036;stroke-width:0.5;" x1="1071" x2="1345" y1="642.2188" y2="642.2188"/><text fill="#000000" font-family="sans-serif" font-size="14" lengthAdjust="spacing" textLength="264" x="1076" y="660.752">+proteger(Collection&lt;Jugador&gt;) : Jugador</text></g><!--class Ciudadano--><g id="elem_Ciudadano"><rect codeLine="36" fill="#FEFECE" filter="url(#f2k1t42fbu6yq)" height="48" id="Ciudadano" rx="2.5" ry="2.5" style="stroke:#A80036;stroke-width:0.5;" width="101" x="1108.5" y="432.6094"/><ellipse cx="1123.5" cy="448.6094" fill="#ADD1B2" rx="11" ry="11" style="stroke:#181818;stroke-width:1.0;"/><path d="M1126.2656,444.4844 Q1126.4219,444.2656 1126.6094,444.1563 Q1126.7969,444.0469 1127.0156,444.0469 Q1127.3906,444.0469 1127.625,444.3125 Q1127.8594,444.5625 1127.8594,445.1719 L1127.8594,446.625 Q1127.8594,447.2344 1127.625,447.5 Q1127.3906,447.7656 1127.0156,447.7656 Q1126.6719,447.7656 1126.4688,447.5625 Q1126.2656,447.375 1126.1563,446.8594 Q1126.1094,446.5 1125.9219,446.3125 Q1125.5938,445.9375 1124.9844,445.7188 Q1124.375,445.5 1123.75,445.5 Q1122.9844,445.5 1122.3438,445.8281 Q1121.7188,446.1563 1121.2188,446.9063 Q1120.7344,447.6563 1120.7344,448.6875 L1120.7344,449.7813 Q1120.7344,451.0156 1121.625,451.8438 Q1122.5156,452.6563 1124.1094,452.6563 Q1125.0469,452.6563 1125.7031,452.4063 Q1126.0938,452.25 1126.5156,451.8125 Q1126.7813,451.5469 1126.9219,451.4688 Q1127.0781,451.3906 1127.2813,451.3906 Q1127.6094,451.3906 1127.8594,451.6563 Q1128.125,451.9063 1128.125,452.25 Q1128.125,452.5938 1127.7813,453 Q1127.2813,453.5781 1126.4844,453.9063 Q1125.4063,454.3594 1124.1094,454.3594 Q1122.5938,454.3594 1121.3906,453.7344 Q1120.4063,453.2344 1119.7188,452.1719 Q1119.0313,451.0938 1119.0313,449.8125 L1119.0313,448.6563 Q1119.0313,447.3281 1119.6406,446.1875 Q1120.2656,445.0313 1121.3594,444.4219 Q1122.4531,443.7969 1123.6875,443.7969 Q1124.4219,443.7969 1125.0625,443.9688 Q1125.7188,444.125 1126.2656,444.4844 Z " fill="#000000"/><text fill="#000000" font-family="sans-serif" font-size="14" lengthAdjust="spacing" textLength="69" x="1137.5" y="454.3379">Ciudadano</text><line style="stroke:#A80036;stroke-width:0.5;" x1="1109.5" x2="1208.5" y1="464.6094" y2="464.6094"/><line style="stroke:#A80036;stroke-width:0.5;" x1="1109.5" x2="1208.5" y1="472.6094" y2="472.6094"/></g><!--class Moderador--><g id="elem_Moderador"><rect codeLine="5" fill="#FEFECE" filter="url(#f2k1t42fbu6yq)" height="188.875" id="Moderador" rx="2.5" ry="2.5" style="stroke:#A80036;stroke-width:0.5;" width="404" x="1783" y="140.6094"/><ellipse cx="1946.25" cy="156.6094" fill="#ADD1B2" rx="11" ry="11" style="stroke:#181818;stroke-width:1.0;"/><path d="M1949.0156,152.4844 Q1949.1719,152.2656 1949.3594,152.1563 Q1949.5469,152.0469 1949.7656,152.0469 Q1950.1406,152.0469 1950.375,152.3125 Q1950.6094,152.5625 1950.6094,153.1719 L1950.6094,154.625 Q1950.6094,155.2344 1950.375,155.5 Q1950.1406,155.7656 1949.7656,155.7656 Q1949.4219,155.7656 1949.2188,155.5625 Q1949.0156,155.375 1948.9063,154.8594 Q1948.8594,154.5 1948.6719,154.3125 Q1948.3438,153.9375 1947.7344,153.7188 Q1947.125,153.5 1946.5,153.5 Q1945.7344,153.5 1945.0938,153.8281 Q1944.4688,154.1563 1943.9688,154.9063 Q1943.4844,155.6563 1943.4844,156.6875 L1943.4844,157.7813 Q1943.4844,159.0156 1944.375,159.8438 Q1945.2656,160.6563 1946.8594,160.6563 Q1947.7969,160.6563 1948.4531,160.4063 Q1948.8438,160.25 1949.2656,159.8125 Q1949.5313,159.5469 1949.6719,159.4688 Q1949.8281,159.3906 1950.0313,159.3906 Q1950.3594,159.3906 1950.6094,159.6563 Q1950.875,159.9063 1950.875,160.25 Q1950.875,160.5938 1950.5313,161 Q1950.0313,161.5781 1949.2344,161.9063 Q1948.1563,162.3594 1946.8594,162.3594 Q1945.3438,162.3594 1944.1406,161.7344 Q1943.1563,161.2344 1942.4688,160.1719 Q1941.7813,159.0938 1941.7813,157.8125 L1941.7813,156.6563 Q1941.7813,155.3281 1942.3906,154.1875 Q1943.0156,153.0313 1944.1094,152.4219 Q1945.2031,151.7969 1946.4375,151.7969 Q1947.1719,151.7969 1947.8125,151.9688 Q1948.4688,152.125 1949.0156,152.4844 Z " fill="#000000"/><text fill="#000000" font-family="sans-serif" font-size="14" lengthAdjust="spacing" textLength="69" x="1966.75" y="162.3379">Moderador</text><line style="stroke:#A80036;stroke-width:0.5;" x1="1784" x2="2186" y1="172.6094" y2="172.6094"/><text fill="#000000" font-family="sans-serif" font-size="14" lengthAdjust="spacing" textLength="149" x="1789" y="191.1426">-estado : EstadoPartida</text><text fill="#000000" font-family="sans-serif" font-size="14" lengthAdjust="spacing" textLength="205" x="1789" y="208.752">-condicion : CondicionDeVictoria</text><text fill="#000000" font-family="sans-serif" font-size="14" lengthAdjust="spacing" textLength="161" x="1789" y="226.3613">-historial : HistorialPartida</text><line style="stroke:#A80036;stroke-width:0.5;" x1="1784" x2="2186" y1="233.4375" y2="233.4375"/><text fill="#000000" font-family="sans-serif" font-size="14" lengthAdjust="spacing" textLength="277" x="1789" y="251.9707">+iniciarPartida(Number: cantidadJugadores)</text><text fill="#000000" font-family="sans-serif" font-size="14" lengthAdjust="spacing" textLength="240" x="1789" y="269.5801">+ejecutarRonda(Collection&lt;Jugador&gt;)</text><text fill="#000000" font-family="sans-serif" font-size="14" lengthAdjust="spacing" textLength="144" x="1789" y="287.1895">+anunciarResultados()</text><text fill="#000000" font-family="sans-serif" font-size="14" lengthAdjust="spacing" textLength="392" x="1789" y="304.7988">-ejecutarFaseNocturna(Collection&lt;Jugador&gt;) : ResultadoFase</text><text fill="#000000" font-family="sans-serif" font-size="14" lengthAdjust="spacing" textLength="377" x="1789" y="322.4082">-ejecutarFaseDiurna(Collection&lt;Jugador&gt;) : ResultadoFase</text></g><!--class HistorialPartida--><g id="elem_HistorialPartida"><rect codeLine="16" fill="#FEFECE" filter="url(#f2k1t42fbu6yq)" height="100.8281" id="HistorialPartida" rx="2.5" ry="2.5" style="stroke:#A80036;stroke-width:0.5;" width="306" x="1442" y="184.6094"/><ellipse cx="1543.25" cy="200.6094" fill="#ADD1B2" rx="11" ry="11" style="stroke:#181818;stroke-width:1.0;"/><path d="M1546.0156,196.4844 Q1546.1719,196.2656 1546.3594,196.1563 Q1546.5469,196.0469 1546.7656,196.0469 Q1547.1406,196.0469 1547.375,196.3125 Q1547.6094,196.5625 1547.6094,197.1719 L1547.6094,198.625 Q1547.6094,199.2344 1547.375,199.5 Q1547.1406,199.7656 1546.7656,199.7656 Q1546.4219,199.7656 1546.2188,199.5625 Q1546.0156,199.375 1545.9063,198.8594 Q1545.8594,198.5 1545.6719,198.3125 Q1545.3438,197.9375 1544.7344,197.7188 Q1544.125,197.5 1543.5,197.5 Q1542.7344,197.5 1542.0938,197.8281 Q1541.4688,198.1563 1540.9688,198.9063 Q1540.4844,199.6563 1540.4844,200.6875 L1540.4844,201.7813 Q1540.4844,203.0156 1541.375,203.8438 Q1542.2656,204.6563 1543.8594,204.6563 Q1544.7969,204.6563 1545.4531,204.4063 Q1545.8438,204.25 1546.2656,203.8125 Q1546.5313,203.5469 1546.6719,203.4688 Q1546.8281,203.3906 1547.0313,203.3906 Q1547.3594,203.3906 1547.6094,203.6563 Q1547.875,203.9063 1547.875,204.25 Q1547.875,204.5938 1547.5313,205 Q1547.0313,205.5781 1546.2344,205.9063 Q1545.1563,206.3594 1543.8594,206.3594 Q1542.3438,206.3594 1541.1406,205.7344 Q1540.1563,205.2344 1539.4688,204.1719 Q1538.7813,203.0938 1538.7813,201.8125 L1538.7813,200.6563 Q1538.7813,199.3281 1539.3906,198.1875 Q1540.0156,197.0313 1541.1094,196.4219 Q1542.2031,195.7969 1543.4375,195.7969 Q1544.1719,195.7969 1544.8125,195.9688 Q1545.4688,196.125 1546.0156,196.4844 Z " fill="#000000"/><text fill="#000000" font-family="sans-serif" font-size="14" lengthAdjust="spacing" textLength="95" x="1563.75" y="206.3379">HistorialPartida</text><line style="stroke:#A80036;stroke-width:0.5;" x1="1443" x2="1747" y1="216.6094" y2="216.6094"/><text fill="#000000" font-family="sans-serif" font-size="14" lengthAdjust="spacing" textLength="257" x="1448" y="235.1426">-resultados : Collection&lt;ResultadoFase&gt;</text><line style="stroke:#A80036;stroke-width:0.5;" x1="1443" x2="1747" y1="242.2188" y2="242.2188"/><text fill="#000000" font-family="sans-serif" font-size="14" lengthAdjust="spacing" textLength="294" x="1448" y="260.752">+registrarResultado(ResultadoFase resultado)</text><text fill="#000000" font-family="sans-serif" font-size="14" lengthAdjust="spacing" textLength="126" x="1448" y="278.3613">+mostrarResumen()</text></g><!--class FaseApertura--><g id="elem_FaseApertura"><rect codeLine="22" fill="#FEFECE" filter="url(#f2k1t42fbu6yq)" height="65.6094" id="FaseApertura" rx="2.5" ry="2.5" style="stroke:#A80036;stroke-width:0.5;" width="210" x="1541" y="423.6094"/><ellipse cx="1598.25" cy="439.6094" fill="#ADD1B2" rx="11" ry="11" style="stroke:#181818;stroke-width:1.0;"/><path d="M1601.0156,435.4844 Q1601.1719,435.2656 1601.3594,435.1563 Q1601.5469,435.0469 1601.7656,435.0469 Q1602.1406,435.0469 1602.375,435.3125 Q1602.6094,435.5625 1602.6094,436.1719 L1602.6094,437.625 Q1602.6094,438.2344 1602.375,438.5 Q1602.1406,438.7656 1601.7656,438.7656 Q1601.4219,438.7656 1601.2188,438.5625 Q1601.0156,438.375 1600.9063,437.8594 Q1600.8594,437.5 1600.6719,437.3125 Q1600.3438,436.9375 1599.7344,436.7188 Q1599.125,436.5 1598.5,436.5 Q1597.7344,436.5 1597.0938,436.8281 Q1596.4688,437.1563 1595.9688,437.9063 Q1595.4844,438.6563 1595.4844,439.6875 L1595.4844,440.7813 Q1595.4844,442.0156 1596.375,442.8438 Q1597.2656,443.6563 1598.8594,443.6563 Q1599.7969,443.6563 1600.4531,443.4063 Q1600.8438,443.25 1601.2656,442.8125 Q1601.5313,442.5469 1601.6719,442.4688 Q1601.8281,442.3906 1602.0313,442.3906 Q1602.3594,442.3906 1602.6094,442.6563 Q1602.875,442.9063 1602.875,443.25 Q1602.875,443.5938 1602.5313,444 Q1602.0313,444.5781 1601.2344,444.9063 Q1600.1563,445.3594 1598.8594,445.3594 Q1597.3438,445.3594 1596.1406,444.7344 Q1595.1563,444.2344 1594.4688,443.1719 Q1593.7813,442.0938 1593.7813,440.8125 L1593.7813,439.6563 Q1593.7813,438.3281 1594.3906,437.1875 Q1595.0156,436.0313 1596.1094,435.4219 Q1597.2031,434.7969 1598.4375,434.7969 Q1599.1719,434.7969 1599.8125,434.9688 Q1600.4688,435.125 1601.0156,435.4844 Z " fill="#000000"/><text fill="#000000" font-family="sans-serif" font-size="14" lengthAdjust="spacing" textLength="87" x="1618.75" y="445.3379">FaseApertura</text><line style="stroke:#A80036;stroke-width:0.5;" x1="1542" x2="1750" y1="455.6094" y2="455.6094"/><line style="stroke:#A80036;stroke-width:0.5;" x1="1542" x2="1750" y1="463.6094" y2="463.6094"/><text fill="#000000" font-family="sans-serif" font-size="14" lengthAdjust="spacing" textLength="198" x="1547" y="482.1426">+ejecutar(Collection&lt;Jugador&gt;)</text></g><!--class Mazo--><g id="elem_Mazo"><rect codeLine="26" fill="#FEFECE" filter="url(#f2k1t42fbu6yq)" height="83.2188" id="Mazo" rx="2.5" ry="2.5" style="stroke:#A80036;stroke-width:0.5;" width="398" x="1786" y="415.1094"/><ellipse cx="1964.25" cy="431.1094" fill="#ADD1B2" rx="11" ry="11" style="stroke:#181818;stroke-width:1.0;"/><path d="M1967.0156,426.9844 Q1967.1719,426.7656 1967.3594,426.6563 Q1967.5469,426.5469 1967.7656,426.5469 Q1968.1406,426.5469 1968.375,426.8125 Q1968.6094,427.0625 1968.6094,427.6719 L1968.6094,429.125 Q1968.6094,429.7344 1968.375,430 Q1968.1406,430.2656 1967.7656,430.2656 Q1967.4219,430.2656 1967.2188,430.0625 Q1967.0156,429.875 1966.9063,429.3594 Q1966.8594,429 1966.6719,428.8125 Q1966.3438,428.4375 1965.7344,428.2188 Q1965.125,428 1964.5,428 Q1963.7344,428 1963.0938,428.3281 Q1962.4688,428.6563 1961.9688,429.4063 Q1961.4844,430.1563 1961.4844,431.1875 L1961.4844,432.2813 Q1961.4844,433.5156 1962.375,434.3438 Q1963.2656,435.1563 1964.8594,435.1563 Q1965.7969,435.1563 1966.4531,434.9063 Q1966.8438,434.75 1967.2656,434.3125 Q1967.5313,434.0469 1967.6719,433.9688 Q1967.8281,433.8906 1968.0313,433.8906 Q1968.3594,433.8906 1968.6094,434.1563 Q1968.875,434.4063 1968.875,434.75 Q1968.875,435.0938 1968.5313,435.5 Q1968.0313,436.0781 1967.2344,436.4063 Q1966.1563,436.8594 1964.8594,436.8594 Q1963.3438,436.8594 1962.1406,436.2344 Q1961.1563,435.7344 1960.4688,434.6719 Q1959.7813,433.5938 1959.7813,432.3125 L1959.7813,431.1563 Q1959.7813,429.8281 1960.3906,428.6875 Q1961.0156,427.5313 1962.1094,426.9219 Q1963.2031,426.2969 1964.4375,426.2969 Q1965.1719,426.2969 1965.8125,426.4688 Q1966.4688,426.625 1967.0156,426.9844 Z " fill="#000000"/><text fill="#000000" font-family="sans-serif" font-size="14" lengthAdjust="spacing" textLength="33" x="1984.75" y="436.8379">Mazo</text><line style="stroke:#A80036;stroke-width:0.5;" x1="1787" x2="2183" y1="447.1094" y2="447.1094"/><line style="stroke:#A80036;stroke-width:0.5;" x1="1787" x2="2183" y1="455.1094" y2="455.1094"/><text fill="#000000" font-family="sans-serif" font-size="14" lengthAdjust="spacing" textLength="386" x="1792" y="473.6426">+generarPara(Number: cantidadJugadores) : Collection&lt;Rol&gt;</text><text fill="#000000" font-family="sans-serif" font-size="14" lengthAdjust="spacing" textLength="236" x="1792" y="491.252">+asignarCartas(Collection&lt;Jugador&gt;)</text></g><!--class CondicionDeVictoria--><g id="elem_CondicionDeVictoria"><rect codeLine="31" fill="#FEFECE" filter="url(#f2k1t42fbu6yq)" height="65.6094" id="CondicionDeVictoria" rx="2.5" ry="2.5" style="stroke:#A80036;stroke-width:0.5;" width="216" x="2219" y="423.6094"/><ellipse cx="2259.2" cy="439.6094" fill="#ADD1B2" rx="11" ry="11" style="stroke:#181818;stroke-width:1.0;"/><path d="M2261.9656,435.4844 Q2262.1219,435.2656 2262.3094,435.1563 Q2262.4969,435.0469 2262.7156,435.0469 Q2263.0906,435.0469 2263.325,435.3125 Q2263.5594,435.5625 2263.5594,436.1719 L2263.5594,437.625 Q2263.5594,438.2344 2263.325,438.5 Q2263.0906,438.7656 2262.7156,438.7656 Q2262.3719,438.7656 2262.1688,438.5625 Q2261.9656,438.375 2261.8563,437.8594 Q2261.8094,437.5 2261.6219,437.3125 Q2261.2938,436.9375 2260.6844,436.7188 Q2260.075,436.5 2259.45,436.5 Q2258.6844,436.5 2258.0438,436.8281 Q2257.4188,437.1563 2256.9188,437.9063 Q2256.4344,438.6563 2256.4344,439.6875 L2256.4344,440.7813 Q2256.4344,442.0156 2257.325,442.8438 Q2258.2156,443.6563 2259.8094,443.6563 Q2260.7469,443.6563 2261.4031,443.4063 Q2261.7938,443.25 2262.2156,442.8125 Q2262.4813,442.5469 2262.6219,442.4688 Q2262.7781,442.3906 2262.9813,442.3906 Q2263.3094,442.3906 2263.5594,442.6563 Q2263.825,442.9063 2263.825,443.25 Q2263.825,443.5938 2263.4813,444 Q2262.9813,444.5781 2262.1844,444.9063 Q2261.1063,445.3594 2259.8094,445.3594 Q2258.2938,445.3594 2257.0906,444.7344 Q2256.1063,444.2344 2255.4188,443.1719 Q2254.7313,442.0938 2254.7313,440.8125 L2254.7313,439.6563 Q2254.7313,438.3281 2255.3406,437.1875 Q2255.9656,436.0313 2257.0594,435.4219 Q2258.1531,434.7969 2259.3875,434.7969 Q2260.1219,434.7969 2260.7625,434.9688 Q2261.4188,435.125 2261.9656,435.4844 Z " fill="#000000"/><text fill="#000000" font-family="sans-serif" font-size="14" lengthAdjust="spacing" textLength="128" x="2278.8" y="445.3379">CondicionDeVictoria</text><line style="stroke:#A80036;stroke-width:0.5;" x1="2220" x2="2434" y1="455.6094" y2="455.6094"/><line style="stroke:#A80036;stroke-width:0.5;" x1="2220" x2="2434" y1="463.6094" y2="463.6094"/><text fill="#000000" font-family="sans-serif" font-size="14" lengthAdjust="spacing" textLength="204" x="2225" y="482.1426">+verificar(EstadoPartida estado)</text></g><!--class EstadoPartida--><g id="elem_EstadoPartida"><rect codeLine="35" fill="#FEFECE" filter="url(#f2k1t42fbu6yq)" height="100.8281" id="EstadoPartida" rx="2.5" ry="2.5" style="stroke:#A80036;stroke-width:0.5;" width="268" x="2222" y="184.6094"/><ellipse cx="2307.25" cy="200.6094" fill="#ADD1B2" rx="11" ry="11" style="stroke:#181818;stroke-width:1.0;"/><path d="M2310.0156,196.4844 Q2310.1719,196.2656 2310.3594,196.1563 Q2310.5469,196.0469 2310.7656,196.0469 Q2311.1406,196.0469 2311.375,196.3125 Q2311.6094,196.5625 2311.6094,197.1719 L2311.6094,198.625 Q2311.6094,199.2344 2311.375,199.5 Q2311.1406,199.7656 2310.7656,199.7656 Q2310.4219,199.7656 2310.2188,199.5625 Q2310.0156,199.375 2309.9063,198.8594 Q2309.8594,198.5 2309.6719,198.3125 Q2309.3438,197.9375 2308.7344,197.7188 Q2308.125,197.5 2307.5,197.5 Q2306.7344,197.5 2306.0938,197.8281 Q2305.4688,198.1563 2304.9688,198.9063 Q2304.4844,199.6563 2304.4844,200.6875 L2304.4844,201.7813 Q2304.4844,203.0156 2305.375,203.8438 Q2306.2656,204.6563 2307.8594,204.6563 Q2308.7969,204.6563 2309.4531,204.4063 Q2309.8438,204.25 2310.2656,203.8125 Q2310.5313,203.5469 2310.6719,203.4688 Q2310.8281,203.3906 2311.0313,203.3906 Q2311.3594,203.3906 2311.6094,203.6563 Q2311.875,203.9063 2311.875,204.25 Q2311.875,204.5938 2311.5313,205 Q2311.0313,205.5781 2310.2344,205.9063 Q2309.1563,206.3594 2307.8594,206.3594 Q2306.3438,206.3594 2305.1406,205.7344 Q2304.1563,205.2344 2303.4688,204.1719 Q2302.7813,203.0938 2302.7813,201.8125 L2302.7813,200.6563 Q2302.7813,199.3281 2303.3906,198.1875 Q2304.0156,197.0313 2305.1094,196.4219 Q2306.2031,195.7969 2307.4375,195.7969 Q2308.1719,195.7969 2308.8125,195.9688 Q2309.4688,196.125 2310.0156,196.4844 Z " fill="#000000"/><text fill="#000000" font-family="sans-serif" font-size="14" lengthAdjust="spacing" textLength="89" x="2327.75" y="206.3379">EstadoPartida</text><line style="stroke:#A80036;stroke-width:0.5;" x1="2223" x2="2489" y1="216.6094" y2="216.6094"/><text fill="#000000" font-family="sans-serif" font-size="14" lengthAdjust="spacing" textLength="142" x="2228" y="235.1426">-rondaActual : Number</text><text fill="#000000" font-family="sans-serif" font-size="14" lengthAdjust="spacing" textLength="212" x="2228" y="252.752">+jugadores : Collection&lt;Jugador&gt;</text><line style="stroke:#A80036;stroke-width:0.5;" x1="2223" x2="2489" y1="259.8281" y2="259.8281"/><text fill="#000000" font-family="sans-serif" font-size="14" lengthAdjust="spacing" textLength="256" x="2228" y="278.3613">+jugadoresVivos() : Collection&lt;Jugador&gt;</text></g><!--class ResultadoFase--><g id="elem_ResultadoFase"><rect codeLine="1" fill="#FEFECE" filter="url(#f2k1t42fbu6yq)" height="65.6094" id="ResultadoFase" rx="2.5" ry="2.5" style="stroke:#A80036;stroke-width:0.5;" width="196" x="3085" y="745.1094"/><ellipse cx="3130.75" cy="761.1094" fill="#B4A7E5" rx="11" ry="11" style="stroke:#181818;stroke-width:1.0;"/><path d="M3131.7031,757.75 L3131.7031,764.4063 L3133.4219,764.4063 Q3134.0313,764.4063 3134.2969,764.6406 Q3134.5625,764.875 3134.5625,765.2656 Q3134.5625,765.6406 3134.2969,765.875 Q3134.0313,766.1094 3133.4219,766.1094 L3128.2813,766.1094 Q3127.6719,766.1094 3127.4063,765.875 Q3127.1406,765.6406 3127.1406,765.25 Q3127.1406,764.875 3127.4063,764.6406 Q3127.6719,764.4063 3128.2813,764.4063 L3130,764.4063 L3130,757.75 L3128.2813,757.75 Q3127.6719,757.75 3127.4063,757.5156 Q3127.1406,757.2813 3127.1406,756.8906 Q3127.1406,756.5156 3127.4063,756.2813 Q3127.6719,756.0469 3128.2813,756.0469 L3133.4219,756.0469 Q3134.0313,756.0469 3134.2969,756.2813 Q3134.5625,756.5156 3134.5625,756.8906 Q3134.5625,757.2813 3134.2969,757.5156 Q3134.0313,757.75 3133.4219,757.75 L3131.7031,757.75 Z " fill="#000000"/><text fill="#000000" font-family="sans-serif" font-size="14" font-style="italic" lengthAdjust="spacing" textLength="96" x="3151.25" y="766.8379">ResultadoFase</text><line style="stroke:#A80036;stroke-width:0.5;" x1="3086" x2="3280" y1="777.1094" y2="777.1094"/><line style="stroke:#A80036;stroke-width:0.5;" x1="3086" x2="3280" y1="785.1094" y2="785.1094"/><text fill="#000000" font-family="sans-serif" font-size="14" lengthAdjust="spacing" textLength="184" x="3091" y="803.6426">+huboEliminacion() : boolean</text></g><!--class VotacionDiurna--><g id="elem_VotacionDiurna"><rect codeLine="3" fill="#FEFECE" filter="url(#f2k1t42fbu6yq)" height="118.4375" id="VotacionDiurna" rx="2.5" ry="2.5" style="stroke:#A80036;stroke-width:0.5;" width="292" x="4098" y="397.6094"/><ellipse cx="4191.25" cy="413.6094" fill="#ADD1B2" rx="11" ry="11" style="stroke:#181818;stroke-width:1.0;"/><path d="M4194.0156,409.4844 Q4194.1719,409.2656 4194.3594,409.1563 Q4194.5469,409.0469 4194.7656,409.0469 Q4195.1406,409.0469 4195.375,409.3125 Q4195.6094,409.5625 4195.6094,410.1719 L4195.6094,411.625 Q4195.6094,412.2344 4195.375,412.5 Q4195.1406,412.7656 4194.7656,412.7656 Q4194.4219,412.7656 4194.2188,412.5625 Q4194.0156,412.375 4193.9063,411.8594 Q4193.8594,411.5 4193.6719,411.3125 Q4193.3438,410.9375 4192.7344,410.7188 Q4192.125,410.5 4191.5,410.5 Q4190.7344,410.5 4190.0938,410.8281 Q4189.4688,411.1563 4188.9688,411.9063 Q4188.4844,412.6563 4188.4844,413.6875 L4188.4844,414.7813 Q4188.4844,416.0156 4189.375,416.8438 Q4190.2656,417.6563 4191.8594,417.6563 Q4192.7969,417.6563 4193.4531,417.4063 Q4193.8438,417.25 4194.2656,416.8125 Q4194.5313,416.5469 4194.6719,416.4688 Q4194.8281,416.3906 4195.0313,416.3906 Q4195.3594,416.3906 4195.6094,416.6563 Q4195.875,416.9063 4195.875,417.25 Q4195.875,417.5938 4195.5313,418 Q4195.0313,418.5781 4194.2344,418.9063 Q4193.1563,419.3594 4191.8594,419.3594 Q4190.3438,419.3594 4189.1406,418.7344 Q4188.1563,418.2344 4187.4688,417.1719 Q4186.7813,416.0938 4186.7813,414.8125 L4186.7813,413.6563 Q4186.7813,412.3281 4187.3906,411.1875 Q4188.0156,410.0313 4189.1094,409.4219 Q4190.2031,408.7969 4191.4375,408.7969 Q4192.1719,408.7969 4192.8125,408.9688 Q4193.4688,409.125 4194.0156,409.4844 Z " fill="#000000"/><text fill="#000000" font-family="sans-serif" font-size="14" lengthAdjust="spacing" textLength="97" x="4211.75" y="419.3379">VotacionDiurna</text><line style="stroke:#A80036;stroke-width:0.5;" x1="4099" x2="4389" y1="429.6094" y2="429.6094"/><text fill="#000000" font-family="sans-serif" font-size="14" lengthAdjust="spacing" textLength="233" x="4104" y="448.1426">-votos : Collection&lt;EleccionJugador&gt;</text><line style="stroke:#A80036;stroke-width:0.5;" x1="4099" x2="4389" y1="455.2188" y2="455.2188"/><text fill="#000000" font-family="sans-serif" font-size="14" lengthAdjust="spacing" textLength="274" x="4104" y="473.752">+jugadoresVotados() : Collection&lt;Jugador&gt;</text><text fill="#000000" font-family="sans-serif" font-size="14" lengthAdjust="spacing" textLength="280" x="4104" y="491.3613">+votaciones() : Collection&lt;EleccionJugador&gt;</text><text fill="#000000" font-family="sans-serif" font-size="14" lengthAdjust="spacing" textLength="173" x="4104" y="508.9707">+resultadoVotacion() : Voto</text></g><!--class Eleccion--><g id="elem_Eleccion"><rect codeLine="10" fill="#FEFECE" filter="url(#f2k1t42fbu6yq)" height="83.2188" id="Eleccion" rx="2.5" ry="2.5" style="stroke:#A80036;stroke-width:0.5;" width="185" x="4151.5" y="584.6094"/><ellipse cx="4213.25" cy="600.6094" fill="#A9DCDF" rx="11" ry="11" style="stroke:#181818;stroke-width:1.0;"/><path d="M4215.4375,602.375 L4211.2969,602.375 L4210.875,603.4063 L4211.2969,603.4063 Q4211.9063,603.4063 4212.1719,603.6406 Q4212.4375,603.875 4212.4375,604.2656 Q4212.4375,604.6406 4212.1719,604.875 Q4211.9063,605.1094 4211.2969,605.1094 L4209,605.1094 Q4208.3906,605.1094 4208.1406,604.875 Q4207.875,604.6406 4207.875,604.25 Q4207.875,603.875 4208.1563,603.6406 Q4208.4219,603.3906 4209.0469,603.4063 L4211.7188,596.75 L4210.6094,596.75 Q4210,596.75 4209.7344,596.5156 Q4209.4688,596.2813 4209.4688,595.8906 Q4209.4688,595.5156 4209.7344,595.2813 Q4210,595.0469 4210.6094,595.0469 L4214.2813,595.0469 L4217.6719,603.4063 Q4218.2656,603.4063 4218.4531,603.5469 Q4218.8438,603.8125 4218.8438,604.2656 Q4218.8438,604.6406 4218.5781,604.875 Q4218.3281,605.1094 4217.7188,605.1094 L4215.4219,605.1094 Q4214.8125,605.1094 4214.5469,604.875 Q4214.2813,604.6406 4214.2813,604.25 Q4214.2813,603.875 4214.5469,603.6406 Q4214.8125,603.4063 4215.4219,603.4063 L4215.8438,603.4063 L4215.4375,602.375 Z M4214.7188,600.6719 L4213.3594,597.2969 L4211.9844,600.6719 L4214.7188,600.6719 Z " fill="#000000"/><text fill="#000000" font-family="sans-serif" font-size="14" font-style="italic" lengthAdjust="spacing" textLength="53" x="4233.75" y="606.3379">Eleccion</text><line style="stroke:#A80036;stroke-width:0.5;" x1="4152.5" x2="4335.5" y1="616.6094" y2="616.6094"/><text fill="#000000" font-family="sans-serif" font-size="14" lengthAdjust="spacing" textLength="115" x="4157.5" y="635.1426">-votante : Jugador</text><line style="stroke:#A80036;stroke-width:0.5;" x1="4152.5" x2="4335.5" y1="642.2188" y2="642.2188"/><text fill="#000000" font-family="sans-serif" font-size="14" lengthAdjust="spacing" textLength="173" x="4157.5" y="660.752">+Eleccion(Jugador votante)</text></g><!--class Voto--><g id="elem_Voto"><rect codeLine="15" fill="#FEFECE" filter="url(#f2k1t42fbu6yq)" height="83.2188" id="Voto" rx="2.5" ry="2.5" style="stroke:#A80036;stroke-width:0.5;" width="267" x="4002.5" y="736.6094"/><ellipse cx="4117.25" cy="752.6094" fill="#ADD1B2" rx="11" ry="11" style="stroke:#181818;stroke-width:1.0;"/><path d="M4120.0156,748.4844 Q4120.1719,748.2656 4120.3594,748.1563 Q4120.5469,748.0469 4120.7656,748.0469 Q4121.1406,748.0469 4121.375,748.3125 Q4121.6094,748.5625 4121.6094,749.1719 L4121.6094,750.625 Q4121.6094,751.2344 4121.375,751.5 Q4121.1406,751.7656 4120.7656,751.7656 Q4120.4219,751.7656 4120.2188,751.5625 Q4120.0156,751.375 4119.9063,750.8594 Q4119.8594,750.5 4119.6719,750.3125 Q4119.3438,749.9375 4118.7344,749.7188 Q4118.125,749.5 4117.5,749.5 Q4116.7344,749.5 4116.0938,749.8281 Q4115.4688,750.1563 4114.9688,750.9063 Q4114.4844,751.6563 4114.4844,752.6875 L4114.4844,753.7813 Q4114.4844,755.0156 4115.375,755.8438 Q4116.2656,756.6563 4117.8594,756.6563 Q4118.7969,756.6563 4119.4531,756.4063 Q4119.8438,756.25 4120.2656,755.8125 Q4120.5313,755.5469 4120.6719,755.4688 Q4120.8281,755.3906 4121.0313,755.3906 Q4121.3594,755.3906 4121.6094,755.6563 Q4121.875,755.9063 4121.875,756.25 Q4121.875,756.5938 4121.5313,757 Q4121.0313,757.5781 4120.2344,757.9063 Q4119.1563,758.3594 4117.8594,758.3594 Q4116.3438,758.3594 4115.1406,757.7344 Q4114.1563,757.2344 4113.4688,756.1719 Q4112.7813,755.0938 4112.7813,753.8125 L4112.7813,752.6563 Q4112.7813,751.3281 4113.3906,750.1875 Q4114.0156,749.0313 4115.1094,748.4219 Q4116.2031,747.7969 4117.4375,747.7969 Q4118.1719,747.7969 4118.8125,747.9688 Q4119.4688,748.125 4120.0156,748.4844 Z " fill="#000000"/><text fill="#000000" font-family="sans-serif" font-size="14" lengthAdjust="spacing" textLength="29" x="4137.75" y="758.3379">Voto</text><line style="stroke:#A80036;stroke-width:0.5;" x1="4003.5" x2="4268.5" y1="768.6094" y2="768.6094"/><text fill="#000000" font-family="sans-serif" font-size="14" lengthAdjust="spacing" textLength="111" x="4008.5" y="787.1426">-votado : Jugador</text><line style="stroke:#A80036;stroke-width:0.5;" x1="4003.5" x2="4268.5" y1="794.2188" y2="794.2188"/><text fill="#000000" font-family="sans-serif" font-size="14" lengthAdjust="spacing" textLength="255" x="4008.5" y="812.752">+Voto(Jugador votante, Jugador votado)</text></g><!--class VotoEnBlanco--><g id="elem_VotoEnBlanco"><rect codeLine="20" fill="#FEFECE" filter="url(#f2k1t42fbu6yq)" height="65.6094" id="VotoEnBlanco" rx="2.5" ry="2.5" style="stroke:#A80036;stroke-width:0.5;" width="170" x="4305" y="745.1094"/><ellipse cx="4342.05" cy="761.1094" fill="#ADD1B2" rx="11" ry="11" style="stroke:#181818;stroke-width:1.0;"/><path d="M4344.8156,756.9844 Q4344.9719,756.7656 4345.1594,756.6563 Q4345.3469,756.5469 4345.5656,756.5469 Q4345.9406,756.5469 4346.175,756.8125 Q4346.4094,757.0625 4346.4094,757.6719 L4346.4094,759.125 Q4346.4094,759.7344 4346.175,760 Q4345.9406,760.2656 4345.5656,760.2656 Q4345.2219,760.2656 4345.0188,760.0625 Q4344.8156,759.875 4344.7063,759.3594 Q4344.6594,759 4344.4719,758.8125 Q4344.1438,758.4375 4343.5344,758.2188 Q4342.925,758 4342.3,758 Q4341.5344,758 4340.8938,758.3281 Q4340.2688,758.6563 4339.7688,759.4063 Q4339.2844,760.1563 4339.2844,761.1875 L4339.2844,762.2813 Q4339.2844,763.5156 4340.175,764.3438 Q4341.0656,765.1563 4342.6594,765.1563 Q4343.5969,765.1563 4344.2531,764.9063 Q4344.6438,764.75 4345.0656,764.3125 Q4345.3313,764.0469 4345.4719,763.9688 Q4345.6281,763.8906 4345.8313,763.8906 Q4346.1594,763.8906 4346.4094,764.1563 Q4346.675,764.4063 4346.675,764.75 Q4346.675,765.0938 4346.3313,765.5 Q4345.8313,766.0781 4345.0344,766.4063 Q4343.9563,766.8594 4342.6594,766.8594 Q4341.1438,766.8594 4339.9406,766.2344 Q4338.9563,765.7344 4338.2688,764.6719 Q4337.5813,763.5938 4337.5813,762.3125 L4337.5813,761.1563 Q4337.5813,759.8281 4338.1906,758.6875 Q4338.8156,757.5313 4339.9094,756.9219 Q4341.0031,756.2969 4342.2375,756.2969 Q4342.9719,756.2969 4343.6125,756.4688 Q4344.2688,756.625 4344.8156,756.9844 Z " fill="#000000"/><text fill="#000000" font-family="sans-serif" font-size="14" lengthAdjust="spacing" textLength="89" x="4360.95" y="766.8379">VotoEnBlanco</text><line style="stroke:#A80036;stroke-width:0.5;" x1="4306" x2="4474" y1="777.1094" y2="777.1094"/><line style="stroke:#A80036;stroke-width:0.5;" x1="4306" x2="4474" y1="785.1094" y2="785.1094"/><text fill="#000000" font-family="sans-serif" font-size="14" lengthAdjust="spacing" textLength="158" x="4311" y="803.6426">+VotoEnBlanco(Jugador)</text></g><!--class TurnoDebate--><g id="elem_TurnoDebate"><rect codeLine="9" fill="#FEFECE" filter="url(#f2k1t42fbu6yq)" height="83.2188" id="TurnoDebate" rx="2.5" ry="2.5" style="stroke:#A80036;stroke-width:0.5;" width="223" x="3532.5" y="193.6094"/><ellipse cx="3597.75" cy="209.6094" fill="#B4A7E5" rx="11" ry="11" style="stroke:#181818;stroke-width:1.0;"/><path d="M3598.7031,206.25 L3598.7031,212.9063 L3600.4219,212.9063 Q3601.0313,212.9063 3601.2969,213.1406 Q3601.5625,213.375 3601.5625,213.7656 Q3601.5625,214.1406 3601.2969,214.375 Q3601.0313,214.6094 3600.4219,214.6094 L3595.2813,214.6094 Q3594.6719,214.6094 3594.4063,214.375 Q3594.1406,214.1406 3594.1406,213.75 Q3594.1406,213.375 3594.4063,213.1406 Q3594.6719,212.9063 3595.2813,212.9063 L3597,212.9063 L3597,206.25 L3595.2813,206.25 Q3594.6719,206.25 3594.4063,206.0156 Q3594.1406,205.7813 3594.1406,205.3906 Q3594.1406,205.0156 3594.4063,204.7813 Q3594.6719,204.5469 3595.2813,204.5469 L3600.4219,204.5469 Q3601.0313,204.5469 3601.2969,204.7813 Q3601.5625,205.0156 3601.5625,205.3906 Q3601.5625,205.7813 3601.2969,206.0156 Q3601.0313,206.25 3600.4219,206.25 L3598.7031,206.25 Z " fill="#000000"/><text fill="#000000" font-family="sans-serif" font-size="14" font-style="italic" lengthAdjust="spacing" textLength="84" x="3618.25" y="215.3379">TurnoDebate</text><line style="stroke:#A80036;stroke-width:0.5;" x1="3533.5" x2="3754.5" y1="225.6094" y2="225.6094"/><line style="stroke:#A80036;stroke-width:0.5;" x1="3533.5" x2="3754.5" y1="233.6094" y2="233.6094"/><text fill="#000000" font-family="sans-serif" font-size="14" lengthAdjust="spacing" textLength="168" x="3538.5" y="252.1426">pedirAccion(Sheriff sheriff)</text><text fill="#000000" font-family="sans-serif" font-size="14" lengthAdjust="spacing" textLength="211" x="3538.5" y="269.752">pedirAccion(Rol sinAccionDiurna)</text></g><!--class FaseDiurna--><g id="elem_FaseDiurna"><rect codeLine="14" fill="#FEFECE" filter="url(#f2k1t42fbu6yq)" height="118.4375" id="FaseDiurna" rx="2.5" ry="2.5" style="stroke:#A80036;stroke-width:0.5;" width="508" x="3390" y="397.6094"/><ellipse cx="3602.75" cy="413.6094" fill="#ADD1B2" rx="11" ry="11" style="stroke:#181818;stroke-width:1.0;"/><path d="M3605.5156,409.4844 Q3605.6719,409.2656 3605.8594,409.1563 Q3606.0469,409.0469 3606.2656,409.0469 Q3606.6406,409.0469 3606.875,409.3125 Q3607.1094,409.5625 3607.1094,410.1719 L3607.1094,411.625 Q3607.1094,412.2344 3606.875,412.5 Q3606.6406,412.7656 3606.2656,412.7656 Q3605.9219,412.7656 3605.7188,412.5625 Q3605.5156,412.375 3605.4063,411.8594 Q3605.3594,411.5 3605.1719,411.3125 Q3604.8438,410.9375 3604.2344,410.7188 Q3603.625,410.5 3603,410.5 Q3602.2344,410.5 3601.5938,410.8281 Q3600.9688,411.1563 3600.4688,411.9063 Q3599.9844,412.6563 3599.9844,413.6875 L3599.9844,414.7813 Q3599.9844,416.0156 3600.875,416.8438 Q3601.7656,417.6563 3603.3594,417.6563 Q3604.2969,417.6563 3604.9531,417.4063 Q3605.3438,417.25 3605.7656,416.8125 Q3606.0313,416.5469 3606.1719,416.4688 Q3606.3281,416.3906 3606.5313,416.3906 Q3606.8594,416.3906 3607.1094,416.6563 Q3607.375,416.9063 3607.375,417.25 Q3607.375,417.5938 3607.0313,418 Q3606.5313,418.5781 3605.7344,418.9063 Q3604.6563,419.3594 3603.3594,419.3594 Q3601.8438,419.3594 3600.6406,418.7344 Q3599.6563,418.2344 3598.9688,417.1719 Q3598.2813,416.0938 3598.2813,414.8125 L3598.2813,413.6563 Q3598.2813,412.3281 3598.8906,411.1875 Q3599.5156,410.0313 3600.6094,409.4219 Q3601.7031,408.7969 3602.9375,408.7969 Q3603.6719,408.7969 3604.3125,408.9688 Q3604.9688,409.125 3605.5156,409.4844 Z " fill="#000000"/><text fill="#000000" font-family="sans-serif" font-size="14" lengthAdjust="spacing" textLength="74" x="3623.25" y="419.3379">FaseDiurna</text><line style="stroke:#A80036;stroke-width:0.5;" x1="3391" x2="3897" y1="429.6094" y2="429.6094"/><line style="stroke:#A80036;stroke-width:0.5;" x1="3391" x2="3897" y1="437.6094" y2="437.6094"/><text fill="#000000" font-family="sans-serif" font-size="14" lengthAdjust="spacing" textLength="316" x="3396" y="456.1426">+ejecutar(Collection&lt;Jugador&gt;) : ResultadoDiurno</text><text fill="#000000" font-family="sans-serif" font-size="14" lengthAdjust="spacing" textLength="241" x="3396" y="473.752">-ejecutarDebate(Collection&lt;Jugador&gt;)</text><text fill="#000000" font-family="sans-serif" font-size="14" lengthAdjust="spacing" textLength="268" x="3396" y="491.3613">-ejecutarNominacion(Collection&lt;Jugador&gt;)</text><text fill="#000000" font-family="sans-serif" font-size="14" lengthAdjust="spacing" textLength="496" x="3396" y="508.9707">-ejecutarVotacion(Collection&lt;Jugador&gt; vivos, Collection&lt;Jugador&gt; nominados)</text></g><!--class ResultadoDiurno--><g id="elem_ResultadoDiurno"><rect codeLine="21" fill="#FEFECE" filter="url(#f2k1t42fbu6yq)" height="83.2188" id="ResultadoDiurno" rx="2.5" ry="2.5" style="stroke:#A80036;stroke-width:0.5;" width="198" x="3467" y="584.6094"/><ellipse cx="3509" cy="600.6094" fill="#ADD1B2" rx="11" ry="11" style="stroke:#181818;stroke-width:1.0;"/><path d="M3511.7656,596.4844 Q3511.9219,596.2656 3512.1094,596.1563 Q3512.2969,596.0469 3512.5156,596.0469 Q3512.8906,596.0469 3513.125,596.3125 Q3513.3594,596.5625 3513.3594,597.1719 L3513.3594,598.625 Q3513.3594,599.2344 3513.125,599.5 Q3512.8906,599.7656 3512.5156,599.7656 Q3512.1719,599.7656 3511.9688,599.5625 Q3511.7656,599.375 3511.6563,598.8594 Q3511.6094,598.5 3511.4219,598.3125 Q3511.0938,597.9375 3510.4844,597.7188 Q3509.875,597.5 3509.25,597.5 Q3508.4844,597.5 3507.8438,597.8281 Q3507.2188,598.1563 3506.7188,598.9063 Q3506.2344,599.6563 3506.2344,600.6875 L3506.2344,601.7813 Q3506.2344,603.0156 3507.125,603.8438 Q3508.0156,604.6563 3509.6094,604.6563 Q3510.5469,604.6563 3511.2031,604.4063 Q3511.5938,604.25 3512.0156,603.8125 Q3512.2813,603.5469 3512.4219,603.4688 Q3512.5781,603.3906 3512.7813,603.3906 Q3513.1094,603.3906 3513.3594,603.6563 Q3513.625,603.9063 3513.625,604.25 Q3513.625,604.5938 3513.2813,605 Q3512.7813,605.5781 3511.9844,605.9063 Q3510.9063,606.3594 3509.6094,606.3594 Q3508.0938,606.3594 3506.8906,605.7344 Q3505.9063,605.2344 3505.2188,604.1719 Q3504.5313,603.0938 3504.5313,601.8125 L3504.5313,600.6563 Q3504.5313,599.3281 3505.1406,598.1875 Q3505.7656,597.0313 3506.8594,596.4219 Q3507.9531,595.7969 3509.1875,595.7969 Q3509.9219,595.7969 3510.5625,595.9688 Q3511.2188,596.125 3511.7656,596.4844 Z " fill="#000000"/><text fill="#000000" font-family="sans-serif" font-size="14" lengthAdjust="spacing" textLength="106" x="3529" y="606.3379">ResultadoDiurno</text><line style="stroke:#A80036;stroke-width:0.5;" x1="3468" x2="3664" y1="616.6094" y2="616.6094"/><text fill="#000000" font-family="sans-serif" font-size="14" lengthAdjust="spacing" textLength="167" x="3473" y="635.1426">-votacion : VotacionDiurna</text><text fill="#000000" font-family="sans-serif" font-size="14" lengthAdjust="spacing" textLength="186" x="3473" y="652.752">-nominacion : VotacionDiurna</text><line style="stroke:#A80036;stroke-width:0.5;" x1="3468" x2="3664" y1="659.8281" y2="659.8281"/></g><!--class VotacionNocturna--><g id="elem_VotacionNocturna"><rect codeLine="3" fill="#FEFECE" filter="url(#f2k1t42fbu6yq)" height="100.8281" id="VotacionNocturna" rx="2.5" ry="2.5" style="stroke:#A80036;stroke-width:0.5;" width="217" x="3059.5" y="406.1094"/><ellipse cx="3107.75" cy="422.1094" fill="#ADD1B2" rx="11" ry="11" style="stroke:#181818;stroke-width:1.0;"/><path d="M3110.5156,417.9844 Q3110.6719,417.7656 3110.8594,417.6563 Q3111.0469,417.5469 3111.2656,417.5469 Q3111.6406,417.5469 3111.875,417.8125 Q3112.1094,418.0625 3112.1094,418.6719 L3112.1094,420.125 Q3112.1094,420.7344 3111.875,421 Q3111.6406,421.2656 3111.2656,421.2656 Q3110.9219,421.2656 3110.7188,421.0625 Q3110.5156,420.875 3110.4063,420.3594 Q3110.3594,420 3110.1719,419.8125 Q3109.8438,419.4375 3109.2344,419.2188 Q3108.625,419 3108,419 Q3107.2344,419 3106.5938,419.3281 Q3105.9688,419.6563 3105.4688,420.4063 Q3104.9844,421.1563 3104.9844,422.1875 L3104.9844,423.2813 Q3104.9844,424.5156 3105.875,425.3438 Q3106.7656,426.1563 3108.3594,426.1563 Q3109.2969,426.1563 3109.9531,425.9063 Q3110.3438,425.75 3110.7656,425.3125 Q3111.0313,425.0469 3111.1719,424.9688 Q3111.3281,424.8906 3111.5313,424.8906 Q3111.8594,424.8906 3112.1094,425.1563 Q3112.375,425.4063 3112.375,425.75 Q3112.375,426.0938 3112.0313,426.5 Q3111.5313,427.0781 3110.7344,427.4063 Q3109.6563,427.8594 3108.3594,427.8594 Q3106.8438,427.8594 3105.6406,427.2344 Q3104.6563,426.7344 3103.9688,425.6719 Q3103.2813,424.5938 3103.2813,423.3125 L3103.2813,422.1563 Q3103.2813,420.8281 3103.8906,419.6875 Q3104.5156,418.5313 3105.6094,417.9219 Q3106.7031,417.2969 3107.9375,417.2969 Q3108.6719,417.2969 3109.3125,417.4688 Q3109.9688,417.625 3110.5156,417.9844 Z " fill="#000000"/><text fill="#000000" font-family="sans-serif" font-size="14" lengthAdjust="spacing" textLength="112" x="3128.25" y="427.8379">VotacionNocturna</text><line style="stroke:#A80036;stroke-width:0.5;" x1="3060.5" x2="3275.5" y1="438.1094" y2="438.1094"/><text fill="#000000" font-family="sans-serif" font-size="14" lengthAdjust="spacing" textLength="158" x="3065.5" y="456.6426">-votos : Collection&lt;Voto&gt;</text><line style="stroke:#A80036;stroke-width:0.5;" x1="3060.5" x2="3275.5" y1="463.7188" y2="463.7188"/><text fill="#000000" font-family="sans-serif" font-size="14" lengthAdjust="spacing" textLength="205" x="3065.5" y="482.252">+votaciones() : Collection&lt;Voto&gt;</text><text fill="#000000" font-family="sans-serif" font-size="14" lengthAdjust="spacing" textLength="195" x="3065.5" y="499.8613">+resultadoVotacion() : Jugador</text></g><!--class Voto--><g id="elem_Voto"><rect codeLine="9" fill="#FEFECE" filter="url(#f2k1t42fbu6yq)" height="100.8281" id="Voto" rx="2.5" ry="2.5" style="stroke:#A80036;stroke-width:0.5;" width="267" x="3034.5" y="575.6094"/><ellipse cx="3149.25" cy="591.6094" fill="#ADD1B2" rx="11" ry="11" style="stroke:#181818;stroke-width:1.0;"/><path d="M3152.0156,587.4844 Q3152.1719,587.2656 3152.3594,587.1563 Q3152.5469,587.0469 3152.7656,587.0469 Q3153.1406,587.0469 3153.375,587.3125 Q3153.6094,587.5625 3153.6094,588.1719 L3153.6094,589.625 Q3153.6094,590.2344 3153.375,590.5 Q3153.1406,590.7656 3152.7656,590.7656 Q3152.4219,590.7656 3152.2188,590.5625 Q3152.0156,590.375 3151.9063,589.8594 Q3151.8594,589.5 3151.6719,589.3125 Q3151.3438,588.9375 3150.7344,588.7188 Q3150.125,588.5 3149.5,588.5 Q3148.7344,588.5 3148.0938,588.8281 Q3147.4688,589.1563 3146.9688,589.9063 Q3146.4844,590.6563 3146.4844,591.6875 L3146.4844,592.7813 Q3146.4844,594.0156 3147.375,594.8438 Q3148.2656,595.6563 3149.8594,595.6563 Q3150.7969,595.6563 3151.4531,595.4063 Q3151.8438,595.25 3152.2656,594.8125 Q3152.5313,594.5469 3152.6719,594.4688 Q3152.8281,594.3906 3153.0313,594.3906 Q3153.3594,594.3906 3153.6094,594.6563 Q3153.875,594.9063 3153.875,595.25 Q3153.875,595.5938 3153.5313,596 Q3153.0313,596.5781 3152.2344,596.9063 Q3151.1563,597.3594 3149.8594,597.3594 Q3148.3438,597.3594 3147.1406,596.7344 Q3146.1563,596.2344 3145.4688,595.1719 Q3144.7813,594.0938 3144.7813,592.8125 L3144.7813,591.6563 Q3144.7813,590.3281 3145.3906,589.1875 Q3146.0156,588.0313 3147.1094,587.4219 Q3148.2031,586.7969 3149.4375,586.7969 Q3150.1719,586.7969 3150.8125,586.9688 Q3151.4688,587.125 3152.0156,587.4844 Z " fill="#000000"/><text fill="#000000" font-family="sans-serif" font-size="14" lengthAdjust="spacing" textLength="29" x="3169.75" y="597.3379">Voto</text><line style="stroke:#A80036;stroke-width:0.5;" x1="3035.5" x2="3300.5" y1="607.6094" y2="607.6094"/><text fill="#000000" font-family="sans-serif" font-size="14" lengthAdjust="spacing" textLength="115" x="3040.5" y="626.1426">-votante : Jugador</text><text fill="#000000" font-family="sans-serif" font-size="14" lengthAdjust="spacing" textLength="111" x="3040.5" y="643.752">-votado : Jugador</text><line style="stroke:#A80036;stroke-width:0.5;" x1="3035.5" x2="3300.5" y1="650.8281" y2="650.8281"/><text fill="#000000" font-family="sans-serif" font-size="14" lengthAdjust="spacing" textLength="255" x="3040.5" y="669.3613">+Voto(Jugador votante, Jugador votado)</text></g><!--class TurnoNocturno--><g id="elem_TurnoNocturno"><rect codeLine="10" fill="#FEFECE" filter="url(#f2k1t42fbu6yq)" height="118.4375" id="TurnoNocturno" rx="2.5" ry="2.5" style="stroke:#A80036;stroke-width:0.5;" width="246" x="2635" y="176.1094"/><ellipse cx="2705.75" cy="192.1094" fill="#B4A7E5" rx="11" ry="11" style="stroke:#181818;stroke-width:1.0;"/><path d="M2706.7031,188.75 L2706.7031,195.4063 L2708.4219,195.4063 Q2709.0313,195.4063 2709.2969,195.6406 Q2709.5625,195.875 2709.5625,196.2656 Q2709.5625,196.6406 2709.2969,196.875 Q2709.0313,197.1094 2708.4219,197.1094 L2703.2813,197.1094 Q2702.6719,197.1094 2702.4063,196.875 Q2702.1406,196.6406 2702.1406,196.25 Q2702.1406,195.875 2702.4063,195.6406 Q2702.6719,195.4063 2703.2813,195.4063 L2705,195.4063 L2705,188.75 L2703.2813,188.75 Q2702.6719,188.75 2702.4063,188.5156 Q2702.1406,188.2813 2702.1406,187.8906 Q2702.1406,187.5156 2702.4063,187.2813 Q2702.6719,187.0469 2703.2813,187.0469 L2708.4219,187.0469 Q2709.0313,187.0469 2709.2969,187.2813 Q2709.5625,187.5156 2709.5625,187.8906 Q2709.5625,188.2813 2709.2969,188.5156 Q2709.0313,188.75 2708.4219,188.75 L2706.7031,188.75 Z " fill="#000000"/><text fill="#000000" font-family="sans-serif" font-size="14" font-style="italic" lengthAdjust="spacing" textLength="96" x="2726.25" y="197.8379">TurnoNocturno</text><line style="stroke:#A80036;stroke-width:0.5;" x1="2636" x2="2880" y1="208.1094" y2="208.1094"/><line style="stroke:#A80036;stroke-width:0.5;" x1="2636" x2="2880" y1="216.1094" y2="216.1094"/><text fill="#000000" font-family="sans-serif" font-size="14" lengthAdjust="spacing" textLength="194" x="2641" y="234.6426">+pedirAccion(Mafioso mafioso)</text><text fill="#000000" font-family="sans-serif" font-size="14" lengthAdjust="spacing" textLength="212" x="2641" y="252.252">+pedirAccion(Detective detective)</text><text fill="#000000" font-family="sans-serif" font-size="14" lengthAdjust="spacing" textLength="186" x="2641" y="269.8613">+pedirAccion(Medico medico)</text><text fill="#000000" font-family="sans-serif" font-size="14" lengthAdjust="spacing" textLength="234" x="2641" y="287.4707">+pedirAccion(Rol sinAccionNocturna)</text></g><!--class FaseNocturna--><g id="elem_FaseNocturna"><rect codeLine="17" fill="#FEFECE" filter="url(#f2k1t42fbu6yq)" height="118.4375" id="FaseNocturna" rx="2.5" ry="2.5" style="stroke:#A80036;stroke-width:0.5;" width="343" x="2586.5" y="397.6094"/><ellipse cx="2709.25" cy="413.6094" fill="#ADD1B2" rx="11" ry="11" style="stroke:#181818;stroke-width:1.0;"/><path d="M2712.0156,409.4844 Q2712.1719,409.2656 2712.3594,409.1563 Q2712.5469,409.0469 2712.7656,409.0469 Q2713.1406,409.0469 2713.375,409.3125 Q2713.6094,409.5625 2713.6094,410.1719 L2713.6094,411.625 Q2713.6094,412.2344 2713.375,412.5 Q2713.1406,412.7656 2712.7656,412.7656 Q2712.4219,412.7656 2712.2188,412.5625 Q2712.0156,412.375 2711.9063,411.8594 Q2711.8594,411.5 2711.6719,411.3125 Q2711.3438,410.9375 2710.7344,410.7188 Q2710.125,410.5 2709.5,410.5 Q2708.7344,410.5 2708.0938,410.8281 Q2707.4688,411.1563 2706.9688,411.9063 Q2706.4844,412.6563 2706.4844,413.6875 L2706.4844,414.7813 Q2706.4844,416.0156 2707.375,416.8438 Q2708.2656,417.6563 2709.8594,417.6563 Q2710.7969,417.6563 2711.4531,417.4063 Q2711.8438,417.25 2712.2656,416.8125 Q2712.5313,416.5469 2712.6719,416.4688 Q2712.8281,416.3906 2713.0313,416.3906 Q2713.3594,416.3906 2713.6094,416.6563 Q2713.875,416.9063 2713.875,417.25 Q2713.875,417.5938 2713.5313,418 Q2713.0313,418.5781 2712.2344,418.9063 Q2711.1563,419.3594 2709.8594,419.3594 Q2708.3438,419.3594 2707.1406,418.7344 Q2706.1563,418.2344 2705.4688,417.1719 Q2704.7813,416.0938 2704.7813,414.8125 L2704.7813,413.6563 Q2704.7813,412.3281 2705.3906,411.1875 Q2706.0156,410.0313 2707.1094,409.4219 Q2708.2031,408.7969 2709.4375,408.7969 Q2710.1719,408.7969 2710.8125,408.9688 Q2711.4688,409.125 2712.0156,409.4844 Z " fill="#000000"/><text fill="#000000" font-family="sans-serif" font-size="14" lengthAdjust="spacing" textLength="89" x="2729.75" y="419.3379">FaseNocturna</text><line style="stroke:#A80036;stroke-width:0.5;" x1="2587.5" x2="2928.5" y1="429.6094" y2="429.6094"/><line style="stroke:#A80036;stroke-width:0.5;" x1="2587.5" x2="2928.5" y1="437.6094" y2="437.6094"/><text fill="#000000" font-family="sans-serif" font-size="14" lengthAdjust="spacing" textLength="331" x="2592.5" y="456.1426">+ejecutar(Collection&lt;Jugador&gt;) : ResultadoNocturno</text><text fill="#000000" font-family="sans-serif" font-size="14" lengthAdjust="spacing" textLength="216" x="2592.5" y="473.752">-ejecutarEleccionMafia() : Jugador</text><text fill="#000000" font-family="sans-serif" font-size="14" lengthAdjust="spacing" textLength="306" x="2592.5" y="491.3613">-ejecutarInvestigacion() : ResultadoInvestigacion</text><text fill="#000000" font-family="sans-serif" font-size="14" lengthAdjust="spacing" textLength="196" x="2592.5" y="508.9707">-ejecutarProteccion() : Jugador</text></g><!--class ResultadoNocturno--><g id="elem_ResultadoNocturno"><rect codeLine="24" fill="#FEFECE" filter="url(#f2k1t42fbu6yq)" height="100.8281" id="ResultadoNocturno" rx="2.5" ry="2.5" style="stroke:#A80036;stroke-width:0.5;" width="257" x="2650.5" y="575.6094"/><ellipse cx="2714.25" cy="591.6094" fill="#ADD1B2" rx="11" ry="11" style="stroke:#181818;stroke-width:1.0;"/><path d="M2717.0156,587.4844 Q2717.1719,587.2656 2717.3594,587.1563 Q2717.5469,587.0469 2717.7656,587.0469 Q2718.1406,587.0469 2718.375,587.3125 Q2718.6094,587.5625 2718.6094,588.1719 L2718.6094,589.625 Q2718.6094,590.2344 2718.375,590.5 Q2718.1406,590.7656 2717.7656,590.7656 Q2717.4219,590.7656 2717.2188,590.5625 Q2717.0156,590.375 2716.9063,589.8594 Q2716.8594,589.5 2716.6719,589.3125 Q2716.3438,588.9375 2715.7344,588.7188 Q2715.125,588.5 2714.5,588.5 Q2713.7344,588.5 2713.0938,588.8281 Q2712.4688,589.1563 2711.9688,589.9063 Q2711.4844,590.6563 2711.4844,591.6875 L2711.4844,592.7813 Q2711.4844,594.0156 2712.375,594.8438 Q2713.2656,595.6563 2714.8594,595.6563 Q2715.7969,595.6563 2716.4531,595.4063 Q2716.8438,595.25 2717.2656,594.8125 Q2717.5313,594.5469 2717.6719,594.4688 Q2717.8281,594.3906 2718.0313,594.3906 Q2718.3594,594.3906 2718.6094,594.6563 Q2718.875,594.9063 2718.875,595.25 Q2718.875,595.5938 2718.5313,596 Q2718.0313,596.5781 2717.2344,596.9063 Q2716.1563,597.3594 2714.8594,597.3594 Q2713.3438,597.3594 2712.1406,596.7344 Q2711.1563,596.2344 2710.4688,595.1719 Q2709.7813,594.0938 2709.7813,592.8125 L2709.7813,591.6563 Q2709.7813,590.3281 2710.3906,589.1875 Q2711.0156,588.0313 2712.1094,587.4219 Q2713.2031,586.7969 2714.4375,586.7969 Q2715.1719,586.7969 2715.8125,586.9688 Q2716.4688,587.125 2717.0156,587.4844 Z " fill="#000000"/><text fill="#000000" font-family="sans-serif" font-size="14" lengthAdjust="spacing" textLength="121" x="2734.75" y="597.3379">ResultadoNocturno</text><line style="stroke:#A80036;stroke-width:0.5;" x1="2651.5" x2="2906.5" y1="607.6094" y2="607.6094"/><text fill="#000000" font-family="sans-serif" font-size="14" lengthAdjust="spacing" textLength="158" x="2656.5" y="626.1426">-victimaElegida : Jugador</text><text fill="#000000" font-family="sans-serif" font-size="14" lengthAdjust="spacing" textLength="245" x="2656.5" y="643.752">-investigacion : ResultadoInvestigacion</text><text fill="#000000" font-family="sans-serif" font-size="14" lengthAdjust="spacing" textLength="134" x="2656.5" y="661.3613">-proteccion : Jugador</text><line style="stroke:#A80036;stroke-width:0.5;" x1="2651.5" x2="2906.5" y1="668.4375" y2="668.4375"/></g><!--reverse link EstadoJugador to Vivo--><g id="link_EstadoJugador_Vivo"><path codeLine="19" d="M180.0851,514.9737 C167.6551,547.5037 157.07,575.1994 146.85,601.9494 " fill="none" id="EstadoJugador-backto-Vivo" style="stroke:#A80036;stroke-width:1.0;stroke-dasharray:7.0,7.0;"/><polygon fill="none" points="186.51,498.1594,174.4803,512.832,185.6899,517.1153,186.51,498.1594" style="stroke:#A80036;stroke-width:1.0;"/></g><!--reverse link EstadoJugador to Eliminado--><g id="link_EstadoJugador_Eliminado"><path codeLine="20" d="M218.244,515.4897 C227.374,548.0197 234.99,575.1994 242.5,601.9494 " fill="none" id="EstadoJugador-backto-Eliminado" style="stroke:#A80036;stroke-width:1.0;stroke-dasharray:7.0,7.0;"/><polygon fill="none" points="213.38,498.1594,212.4672,517.1111,224.0208,513.8684,213.38,498.1594" style="stroke:#A80036;stroke-width:1.0;"/></g><!--reverse link Jugador to EstadoJugador--><g id="link_Jugador_EstadoJugador"><path codeLine="21" d="M202,341.8294 C202,371.6594 202,391.1094 202,415.0894 " fill="none" id="Jugador-backto-EstadoJugador" style="stroke:#A80036;stroke-width:1.0;"/><polygon fill="#A80036" points="202,329.8294,198,335.8294,202,341.8294,206,335.8294,202,329.8294" style="stroke:#A80036;stroke-width:1.0;"/></g><!--reverse link Rol to Ciudadano--><g id="link_Rol_Ciudadano"><path codeLine="38" d="M1091.37,456.6094 C1103.07,456.6094 1096.78,456.6094 1108.49,456.6094 " fill="none" id="Rol-backto-Ciudadano" style="stroke:#A80036;stroke-width:1.0;"/><polygon fill="none" points="1073.37,456.6094,1091.37,462.6094,1091.37,450.6094,1073.37,456.6094" style="stroke:#A80036;stroke-width:1.0;"/></g><!--reverse link Rol to Mafioso--><g id="link_Rol_Mafioso"><path codeLine="39" d="M849.5394,524.0717 C811.6094,542.8717 772.86,559.4694 734.31,575.5394 " fill="none" id="Rol-backto-Mafioso" style="stroke:#A80036;stroke-width:1.0;"/><polygon fill="none" points="865.5,515.7494,846.7653,518.7515,852.3135,529.3919,865.5,515.7494" style="stroke:#A80036;stroke-width:1.0;"/></g><!--reverse link Rol to Medico--><g id="link_Rol_Medico"><path codeLine="40" d="M1064.1299,525.9356 C1097.0299,548.6156 1119.13,563.8494 1149.08,584.4994 " fill="none" id="Rol-backto-Medico" style="stroke:#A80036;stroke-width:1.0;"/><polygon fill="none" points="1049.31,515.7194,1060.7244,530.8756,1067.5353,520.9957,1049.31,515.7194" style="stroke:#A80036;stroke-width:1.0;"/></g><!--reverse link Rol to Detective--><g id="link_Rol_Detective"><path codeLine="41" d="M1001.0083,532.3204 C1009.1183,551.0004 1009.93,555.5494 1015,575.6094 C1028.77,630.1194 1032.75,695.1994 1033.8,736.3494 " fill="none" id="Rol-backto-Detective" style="stroke:#A80036;stroke-width:1.0;"/><polygon fill="none" points="993.84,515.8094,995.5047,534.7099,1006.512,529.931,993.84,515.8094" style="stroke:#A80036;stroke-width:1.0;"/></g><!--reverse link Rol to Sheriff--><g id="link_Rol_Sheriff"><path codeLine="42" d="M934.2044,532.3627 C926.1844,551.8327 924.18,556.6994 916.45,575.4494 " fill="none" id="Rol-backto-Sheriff" style="stroke:#A80036;stroke-width:1.0;"/><polygon fill="none" points="941.06,515.7194,928.6566,530.0775,939.7521,534.6479,941.06,515.7194" style="stroke:#A80036;stroke-width:1.0;"/></g><!--reverse link Mafioso to Padrino--><g id="link_Mafioso_Padrino"><path codeLine="43" d="M608,694.6394 C608,717.1694 608,725.1794 608,745.0894 " fill="none" id="Mafioso-backto-Padrino" style="stroke:#A80036;stroke-width:1.0;"/><polygon fill="none" points="608,676.6394,602,694.6394,614,694.6394,608,676.6394" style="stroke:#A80036;stroke-width:1.0;"/></g><!--reverse link Jugador to Rol--><g id="link_Jugador_Rol"><path codeLine="5" d="M388.031,279.3446 C388.3427,280.5663 385.9269,271.0979 386.2514,272.3698 C391.4441,292.7216 398.2281,319.3113 405.0113,345.8981 C411.7944,372.485 418.5766,399.0691 423.7655,419.4095 C424.0898,420.6808 424.4079,421.9277 424.7193,423.1487 C424.7972,423.4539 424.8747,423.7575 424.9517,424.0595 " fill="none" id="Jugador-backto-Rol" style="stroke:#A80036;stroke-width:1.0;"/><polygon fill="#A80036" points="385.0643,267.7171,382.6718,274.5198,388.031,279.3446,390.4235,272.5419,385.0643,267.7171" style="stroke:#A80036;stroke-width:1.0;"/></g><!--link Moderador to FaseApertura--><g id="link_Moderador_FaseApertura"><path codeLine="41" d="M1782.88,328.4394 C1778.16,331.4394 1773.52,334.4994 1769,337.6094 C1732.9,362.4094 1701.4875,393.5493 1677.9875,419.1493 " fill="none" id="Moderador-to-FaseApertura" style="stroke:#A80036;stroke-width:1.0;stroke-dasharray:7.0,7.0;"/><polygon fill="#A80036" points="1673.93,423.5694,1682.9629,419.6443,1677.3112,419.886,1677.0695,414.2343,1673.93,423.5694" style="stroke:#A80036;stroke-width:1.0;"/></g><!--link Moderador to Mazo--><g id="link_Moderador_Mazo"><path codeLine="42" d="M1985,329.8294 C1985,359.6594 1985,385.1094 1985,409.0894 " fill="none" id="Moderador-to-Mazo" style="stroke:#A80036;stroke-width:1.0;stroke-dasharray:7.0,7.0;"/><polygon fill="#A80036" points="1985,415.0894,1989,406.0894,1985,410.0894,1981,406.0894,1985,415.0894" style="stroke:#A80036;stroke-width:1.0;"/></g><!--link Moderador to EstadoPartida--><g id="link_Moderador_EstadoPartida"><path codeLine="43" d="M2187.17,235.1094 C2198.71,235.1094 2204.25,235.1094 2215.79,235.1094 " fill="none" id="Moderador-to-EstadoPartida" style="stroke:#A80036;stroke-width:1.0;"/><polygon fill="#A80036" points="2221.79,235.1094,2212.79,231.1094,2216.79,235.1094,2212.79,239.1094,2221.79,235.1094" style="stroke:#A80036;stroke-width:1.0;"/></g><!--link Moderador to CondicionDeVictoria--><g id="link_Moderador_CondicionDeVictoria"><path codeLine="44" d="M2187.21,327.9594 C2192.25,331.1194 2197.18,334.3394 2202,337.6094 C2238.53,362.4394 2270.501,393.6178 2294.431,419.1978 " fill="none" id="Moderador-to-CondicionDeVictoria" style="stroke:#A80036;stroke-width:1.0;"/><polygon fill="#A80036" points="2298.53,423.5794,2295.3026,414.2743,2295.1142,419.928,2289.4605,419.7396,2298.53,423.5794" style="stroke:#A80036;stroke-width:1.0;"/></g><!--reverse link HistorialPartida to Moderador--><g id="link_HistorialPartida_Moderador"><path codeLine="45" d="M1754.11,235.1094 C1765.67,235.1094 1771.24,235.1094 1782.81,235.1094 " fill="none" id="HistorialPartida-backto-Moderador" style="stroke:#A80036;stroke-width:1.0;"/><polygon fill="#A80036" points="1748.11,235.1094,1757.11,239.1094,1753.11,235.1094,1757.11,231.1094,1748.11,235.1094" style="stroke:#A80036;stroke-width:1.0;"/></g><!--reverse link Eleccion to Voto--><g id="link_Eleccion_Voto"><path codeLine="24" d="M4204.2579,682.3109 C4188.8979,703.6609 4180.62,715.1394 4165.25,736.4894 " fill="none" id="Eleccion-backto-Voto" style="stroke:#A80036;stroke-width:1.0;"/><polygon fill="none" points="4214.77,667.6994,4199.3874,678.8069,4209.1284,685.8149,4214.77,667.6994" style="stroke:#A80036;stroke-width:1.0;"/></g><!--reverse link Eleccion to VotoEnBlanco--><g id="link_Eleccion_VotoEnBlanco"><path codeLine="25" d="M4296.0642,680.5986 C4319.7142,704.8986 4336.79,722.4394 4358.79,745.0394 " fill="none" id="Eleccion-backto-VotoEnBlanco" style="stroke:#A80036;stroke-width:1.0;"/><polygon fill="none" points="4283.51,667.6994,4291.7645,684.7834,4300.364,676.4139,4283.51,667.6994" style="stroke:#A80036;stroke-width:1.0;"/></g><!--link VotacionDiurna to Eleccion--><g id="link_VotacionDiurna_Eleccion"><path codeLine="27" d="M4244,515.7194 C4244,538.3994 4244,557.8494 4244,578.4994 " fill="none" id="VotacionDiurna-to-Eleccion" style="stroke:#A80036;stroke-width:1.0;"/><polygon fill="#A80036" points="4244,584.4994,4248,575.4994,4244,579.4994,4240,575.4994,4244,584.4994" style="stroke:#A80036;stroke-width:1.0;"/></g><!--reverse link TurnoDebate to FaseDiurna--><g id="link_TurnoDebate_FaseDiurna"><path codeLine="26" d="M3644,294.6294 C3644,328.5694 3644,359.4394 3644,397.5394 " fill="none" id="TurnoDebate-backto-FaseDiurna" style="stroke:#A80036;stroke-width:1.0;stroke-dasharray:7.0,7.0;"/><polygon fill="none" points="3644,276.6294,3638,294.6294,3650,294.6294,3644,276.6294" style="stroke:#A80036;stroke-width:1.0;"/></g><!--link FaseDiurna to ResultadoDiurno--><g id="link_FaseDiurna_ResultadoDiurno"><path codeLine="28" d="M3616.94,515.7194 C3606.38,538.3994 3597.0637,558.4106 3587.4437,579.0606 " fill="none" id="FaseDiurna-to-ResultadoDiurno" style="stroke:#A80036;stroke-width:1.0;"/><polygon fill="#A80036" points="3584.91,584.4994,3592.3364,578.0303,3587.0214,579.9671,3585.0847,574.6521,3584.91,584.4994" style="stroke:#A80036;stroke-width:1.0;"/></g><!--link FaseDiurna to VotacionDiurna--><g id="link_FaseDiurna_VotacionDiurna"><path codeLine="31" d="M3930.0643,267.7171 C3930.1414,268.0193 3930.2189,268.3231 3930.2968,268.6285 C3930.6085,269.8502 3930.9269,271.0979 3931.2514,272.3698 C3936.4441,292.7216 3943.2281,319.3113 3950.0113,345.8981 C3956.7944,372.485 3963.5766,399.0691 3968.7655,419.4095 C3969.0898,420.6808 3969.4079,421.9277 3969.7193,423.1487 C3969.7972,423.4539 3968.3916,417.9437 3968.4686,418.2457 " fill="none" id="FaseDiurna-to-VotacionDiurna" style="stroke:#A80036;stroke-width:1.0;"/><polygon fill="#A80036" points="3969.9517,424.0595,3971.6029,414.3501,3968.7158,419.2147,3963.8512,416.3275,3969.9517,424.0595" style="stroke:#A80036;stroke-width:1.0;"/></g><!--link ResultadoDiurno to ResultadoFase--><g id="link_ResultadoDiurno_ResultadoFase"><path codeLine="32" d="M3466.87,665.9294 C3404.14,690.4994 3340.7895,715.3028 3281.6795,738.4628 " fill="none" id="ResultadoDiurno-to-ResultadoFase" style="stroke:#A80036;stroke-width:1.0;stroke-dasharray:7.0,7.0;"/><polygon fill="none" points="3264.92,745.0294,3283.8683,744.0493,3279.4906,732.8763,3264.92,745.0294" style="stroke:#A80036;stroke-width:1.0;"/></g><!--link VotacionNocturna to Voto--><g id="link_VotacionNocturna_Voto"><path codeLine="15" d="M3168,507.4094 C3168,528.9194 3168,548.0194 3168,569.4994 " fill="none" id="VotacionNocturna-to-Voto" style="stroke:#A80036;stroke-width:1.0;"/><polygon fill="#A80036" points="3168,575.4994,3172,566.4994,3168,570.4994,3164,566.4994,3168,575.4994" style="stroke:#A80036;stroke-width:1.0;"/></g><!--link TurnoNocturno to FaseNocturna--><g id="link_TurnoNocturno_FaseNocturna"><path codeLine="30" d="M2758,294.3594 C2758,326.2294 2758,347.6094 2758,379.4694 " fill="none" id="TurnoNocturno-to-FaseNocturna" style="stroke:#A80036;stroke-width:1.0;stroke-dasharray:7.0,7.0;"/><polygon fill="none" points="2758,397.4694,2764,379.4694,2752,379.4694,2758,397.4694" style="stroke:#A80036;stroke-width:1.0;"/></g><!--link ResultadoNocturno to ResultadoFase--><g id="link_ResultadoNocturno_ResultadoFase"><path codeLine="31" d="M2907.63,675.4594 C2943.35,688.8394 2982.17,703.3294 3018,716.6094 C3043.03,725.8894 3053.3298,729.694 3078.2898,738.844 " fill="none" id="ResultadoNocturno-to-ResultadoFase" style="stroke:#A80036;stroke-width:1.0;stroke-dasharray:7.0,7.0;"/><polygon fill="none" points="3095.19,745.0394,3080.3549,733.2106,3076.2247,744.4774,3095.19,745.0394" style="stroke:#A80036;stroke-width:1.0;"/></g><!--link FaseNocturna to ResultadoNocturno--><g id="link_FaseNocturna_ResultadoNocturno"><path codeLine="32" d="M2765.29,515.7194 C2767.73,535.1894 2769.6738,550.746 2772.0238,569.496 " fill="none" id="FaseNocturna-to-ResultadoNocturno" style="stroke:#A80036;stroke-width:1.0;"/><polygon fill="#A80036" points="2772.77,575.4494,2775.6197,566.0218,2772.1482,570.4882,2767.6818,567.0167,2772.77,575.4494" style="stroke:#A80036;stroke-width:1.0;"/></g><!--link FaseNocturna to VotacionNocturna--><g id="link_FaseNocturna_VotacionNocturna"><path codeLine="35" d="M2962.0643,267.7171 C2962.1414,268.0193 2962.2189,268.3231 2962.2968,268.6285 C2962.6085,269.8502 2962.9269,271.0979 2963.2514,272.3698 C2968.4441,292.7216 2975.2281,319.3113 2982.0113,345.8981 C2988.7944,372.485 2995.5766,399.0691 3000.7655,419.4095 C3001.0898,420.6808 3001.4079,421.9277 3001.7193,423.1487 C3001.7972,423.4539 3000.3916,417.9437 3000.4686,418.2457 " fill="none" id="FaseNocturna-to-VotacionNocturna" style="stroke:#A80036;stroke-width:1.0;stroke-dasharray:7.0,7.0;"/><polygon fill="#A80036" points="3001.9517,424.0595,3003.6029,414.3501,3000.7158,419.2147,2995.8512,416.3275,3001.9517,424.0595" style="stroke:#A80036;stroke-width:1.0;"/></g><!--SRC=[ROr12W8n34NtEKNS2lKKua9mumKaj9qIJPlIQLSoTxUCWqKqo_z-_ija7nGydbiWfyNF-0Jij-DafJcFzpSuv1RbcnILaMx_k3S6hogm07oAKPqlOmJovZpH_EkRUdXpt4gYFywL9hLry6wgNCNZaIaKYeIzPsNTDdYXYGbU]--></g></svg>